<?xml version="1.0" encoding="utf-8"?>
<!-- Generator: Adobe Illustrator 16.0.3, SVG Export Plug-In . SVG Version: 6.00 Build 0)  -->
<!DOCTYPE svg PUBLIC "-//W3C//DTD SVG 1.1//EN" "http://www.w3.org/Graphics/SVG/1.1/DTD/svg11.dtd">
<svg version="1.1"
	 id="svg5" xmlns:inkscape="http://www.inkscape.org/namespaces/inkscape" xmlns:sodipodi="http://sodipodi.sourceforge.net/DTD/sodipodi-0.dtd" xmlns:svg="http://www.w3.org/2000/svg" sodipodi:docname="logo.svg" inkscape:version="1.1.2 (0a00cf5339, 2022-02-04)"
	 xmlns="http://www.w3.org/2000/svg" xmlns:xlink="http://www.w3.org/1999/xlink" x="0px" y="0px" width="595.275px"
	 height="841.89px" viewBox="0 0 595.275 841.89" enable-background="new 0 0 595.275 841.89" xml:space="preserve">
<sodipodi:namedview  inkscape:cy="414.65565" inkscape:cx="1023.6269" inkscape:zoom="0.28819094" showgrid="false" borderopacity="1.0" bordercolor="#666666" pagecolor="#ffffff" id="namedview7" inkscape:window-x="33" inkscape:window-height="864" inkscape:current-layer="layer1" inkscape:document-units="mm" inkscape:window-width="1407" inkscape:window-maximized="1" inkscape:pagecheckerboard="0" inkscape:pageopacity="0.0" inkscape:pageshadow="2" inkscape:window-y="0">
	</sodipodi:namedview>
<g>
	<path id="path75" sodipodi:nodetypes="ccccccccccc" fill="none" stroke="#BF1E23" stroke-width="5.1329" d="M294.996,412.388
		l-28.282,0.06v85.088l-39.5,0.641c-8.146-1.322-12.119-6.014-15.327-11.098c-1.585-3.44-0.245-1.045-0.37-1.564l0.208-116.082
		h-30.884c-2.788-0.609-2.956-2.616,0.064-5.583l107.224-96.524c0,0,5.965-5.37,5.597-5.039"/>
	<g id="g47876" transform="matrix(4.819664,0,0,4.819664,-391.95268,-153.85584)">
		<path id="path27247" sodipodi:nodetypes="cccccccccc" fill="none" stroke="#0157A4" stroke-width="1.065" d="M142.53,117.486
			l5.385-0.04l0.031,17.345h9.028c0.741-0.299,1.437-0.23,2.428-2.507V108.15h6.57c0.41-0.119,0.667-0.336-0.007-1.143
			l-22.467-19.727c0,0-1.223-1.068-1.151-1.005"/>
	</g>
</g>
<path fill-rule="evenodd" clip-rule="evenodd" fill="none" d="M733.389,416.562c6.418,0.111,12.088-0.352,15.746-5.711
	c5.085-7.453,0.634-16.262-9.217-18.557c-4.204-0.979-8.496-1.758-12.54-3.211c-5.476-1.969-6.519-8.357-2.236-11.945
	c5.753-4.82,15.874-3.436,19.896,2.787c0.954,1.479,1.523,4.096,3.772,2.447c1.851-1.357,0.132-3.41-0.783-4.867
	c-3.747-5.967-13.729-8.584-21.077-5.648c-5.912,2.361-8.572,6.195-8.438,12.162c0.118,5.244,2.165,7.508,9.038,9.584
	c4.602,1.389,9.354,2.32,13.881,3.908c3.248,1.141,5.811,3.395,5.703,7.352c-0.109,4.064-2.598,6.393-6.164,7.59
	c-8.523,2.865-15.664,0.047-20.128-7.813c-0.493-0.871-0.835-2.053-2.045-1.791c-1.438,0.309-1.394,1.625-1.381,2.828
	c0.024,2.309,1.086,4.166,2.545,5.813C723.708,415.718,728.66,416.708,733.389,416.562z"/>
<path fill-rule="evenodd" clip-rule="evenodd" fill="none" d="M892.524,393.455c0.013,0,0.026,0,0.039,0c0-5.652,0-11.305,0-16.957
	c0-0.334,0.021-0.668-0.006-0.998c-0.105-1.297,0.111-3.074-1.607-3.184c-2.096-0.131-2.051,1.811-2.103,3.266
	c-0.083,2.324,0.056,4.656-0.017,6.982c-0.146,4.768-1.045,5.219-5.229,2.744c-6.247-3.695-13.665-1.461-16.818,5.098
	c-2.756,5.732-2.646,11.482-0.368,17.391c2.96,7.68,10.526,10.793,17.78,7.053c1.453-0.75,2.756-2.047,4.529-0.793
	c3.717,2.629,3.75-0.168,3.777-2.646C892.567,405.425,892.524,399.439,892.524,393.455z"/>
<path fill-rule="evenodd" clip-rule="evenodd" fill="none" d="M846.071,401.353c0-0.016,0-0.029,0-0.045
	c2.997,0,5.995-0.016,8.992,0.008c1.736,0.012,3.031-0.535,2.908-2.518c-0.318-5.15-1.637-9.908-6.126-13.07
	c-4.362-3.072-9.063-3.027-13.707-0.777c-8.087,3.92-11.042,17.551-5.698,25.797c4.916,7.584,18.984,7.662,22.986,0.121
	c0.529-0.996,1.494-2.172,0.159-3.064c-0.938-0.627-1.853,0.234-2.563,0.979c-0.803,0.84-1.527,1.781-2.434,2.486
	c-5.386,4.191-13.537,2.027-15.805-4.152c-1.447-3.941-0.389-5.596,3.793-5.748C841.071,401.277,843.572,401.353,846.071,401.353z"
	/>
<path fill-rule="evenodd" clip-rule="evenodd" fill="none" d="M772.227,383.464c-3.34-0.197-6.987,0.666-9.715,3.805
	c-1.055,1.213-2.524,3.004-0.94,4.322c1.603,1.334,2.473-0.768,3.319-1.896c3.002-4.006,7.126-3.973,11.26-2.756
	c2.469,0.729,4.163,2.742,4.299,5.557c0.145,2.963-2.051,3.861-4.307,4.715c-2.863,1.086-5.911,0.764-8.848,1.254
	c-6.873,1.148-10.393,7.09-7.844,13.182c2.016,4.822,9.623,6.734,15.222,3.297c3.216-1.973,5.626-3.207,8.317,0.516
	c0.763,1.055,2.533,1.262,3.623,0.258c1.511-1.389,0.03-2.316-0.921-3.176c-1.563-1.412-1.389-3.289-1.409-5.098
	c-0.049-4.318,0.01-8.641-0.082-12.957C784.026,386.337,781.08,383.505,772.227,383.464z"/>
<path fill-rule="evenodd" clip-rule="evenodd" fill="none" d="M795.656,399.972c-0.014,0-0.027,0-0.042,0
	c0,3.99-0.037,7.98,0.021,11.969c0.02,1.402-0.45,3.445,1.684,3.529c2.568,0.102,1.949-2.18,2.025-3.707
	c0.268-5.465-0.51-10.979,0.746-16.395c1.334-5.754,5.039-9.012,9.834-8.73c4.547,0.268,7.088,3.564,7.348,10.104
	c0.203,5.145,0.017,10.303,0.063,15.455c0.014,1.475-0.054,3.289,2.047,3.354c2.274,0.07,1.961-1.852,1.976-3.27
	c0.057-5.816,0.175-11.639,0.02-17.451c-0.273-10.152-8.729-14.586-17.416-9.158c-1.639,1.023-2.893,2.102-4.771,0.344
	c-2.974-2.781-3.468-0.51-3.515,1.99C795.602,391.994,795.656,395.984,795.656,399.972z"/>
<path fill-rule="evenodd" clip-rule="evenodd" fill="none" d="M711.405,467.33c0.014,0,0.027,0,0.041,0
	c0,3.662-0.001,7.324,0.004,10.984c0,0.332,0.029,0.666,0.069,0.996c0.119,0.984,0.116,2.24,1.349,2.355
	c1.73,0.162,1.537-1.363,1.656-2.457c0.09-0.824,0.039-1.662,0.053-2.494c0.133-7.738,0.26-7.867,7.816-7.793
	c1.164,0.01,2.33,0.039,3.492,0.105c3.746,0.211,5.525,2.328,6.254,5.916c0.468,2.303-1.289,6.756,2.115,6.363
	c2.508-0.287,0.639-4.904,0.854-7.572c0.061-0.766-0.285-1.688-0.729-2.344c-1.719-2.539-1.191-4.73,0.121-7.395
	c2.896-5.875-0.314-11.137-6.903-11.609c-3.978-0.285-7.985-0.1-11.978-0.201c-2.906-0.072-4.305,1.176-4.234,4.16
	C711.47,460.005,711.405,463.669,711.405,467.33z"/>
<path fill-rule="evenodd" clip-rule="evenodd" fill="none" d="M847.996,481.076c0.511,0.004,1.021,0.006,1.532,0.008
	c0-4.891,0.208-9.795-0.061-14.674c-0.249-4.5-3.379-7.387-7.321-5.664c-6.463,2.826-12.74-1.703-19.291,0.783
	c-2.338,0.889-3.009,1.133-3.029,3.195c-0.033,3.488-0.086,6.98,0.024,10.465c0.067,2.102-0.469,4.418,1.295,6.58
	c1.771-2.723,0.985-5.273,1.113-7.682c0.132-2.494,0.124-4.977,1.163-7.326c1.172-2.648,2.845-4.492,6.062-4.076
	c3.343,0.434,3.644,2.988,3.735,5.545c0.133,3.652,0.082,7.309,0.163,10.963c0.021,0.965,0.017,2.262,1.365,2.215
	c1.24-0.041,1.374-1.268,1.398-2.273c0.075-3.156-0.003-6.318,0.177-9.467c0.217-3.793,1.451-7.197,5.992-6.992
	c4.37,0.197,4.846,3.744,5.088,7.24C847.659,473.63,846.71,477.443,847.996,481.076z"/>
<path fill-rule="evenodd" clip-rule="evenodd" fill="none" d="M858.057,465.72c4.445-3.234,6.236-3.828,8.842-3.303
	c1.965,0.398,3.48,1.334,3.662,3.484c0.186,2.193-1.061,3.355-3.152,3.762c-1.955,0.381-3.908,0.785-5.846,1.246
	c-4.508,1.072-6.453,3.971-5.364,7.92c0.898,3.264,5.153,5.955,8.294,4.232c3.743-2.055,6.988-2.031,11.396,0.51
	c-1.624-4.287-1.941-7.67-1.863-11.131c0.057-2.473-0.033-5.029-0.607-7.414c-1.059-4.389-4.775-4.758-8.354-4.463
	C862.225,460.798,858.531,460.367,858.057,465.72z"/>
<path fill-rule="evenodd" clip-rule="evenodd" fill="none" d="M760.031,478.091c-1.65-0.568-2.277-0.025-2.869,0.563
	c-2.268,2.254-5.008,2.482-7.875,1.674c-2.533-0.713-3.993-2.596-3.818-5.18c0.184-2.711,2.563-2.658,4.543-2.754
	c1.99-0.096,3.989-0.006,5.984-0.021c5.221-0.041,6.523-1.992,4.373-6.748c-1.396-3.092-3.754-4.961-7.273-5.266
	c-8.171-0.709-13.211,6.75-10.701,15.891c1.08,3.939,3.76,6.301,7.648,6.947C754.346,483.912,757.766,482.357,760.031,478.091z"/>
<path fill-rule="evenodd" clip-rule="evenodd" fill="none" d="M798.811,471.423c-0.048-7.156-3.645-11.131-9.991-11.037
	c-6.45,0.092-10.279,4.434-10.233,11.604c0.039,6.131,4.808,11.369,10.332,11.35C794.926,483.318,798.859,478.58,798.811,471.423z"
	/>
<path fill-rule="evenodd" clip-rule="evenodd" fill="none" d="M881.428,476.074c1.056,5.947,4.148,7.99,9.326,7.189
	c3.888-0.604,7.04-2.414,7.178-6.924c0.072-2.385-1.315-4.094-3.607-4.861c-2.366-0.795-4.783-1.434-7.158-2.199
	c-1.995-0.643-3.064-2.035-2.74-4.158c0.311-2.035,1.975-2.34,3.681-2.732c3.003-0.689,5.085,1.725,7.944,2.535
	c-1.987-4.965-9.792-6.061-13.213-2.301c-2.556,2.809-1.97,6.645,1.521,8.246c2.4,1.1,5.066,1.607,7.572,2.494
	c1.798,0.637,3.437,1.672,3.264,3.877c-0.192,2.447-2.108,3.225-4.194,3.537C887.431,481.312,884.596,479.781,881.428,476.074z"/>
<path fill-rule="evenodd" clip-rule="evenodd" fill="none" d="M774.902,461.929c-3.153-2.287-4.81-4.512-1.76-7.496
	c0.604-0.592,1.382-1.129,0.675-1.998c-0.635-0.779-1.549-0.379-2.295-0.059c-1.452,0.621-2.498,1.703-2.763,3.281
	c-0.569,3.385-2.39,6.264-0.679,10.354c1.541,3.684,0.389,8.482,0.482,12.787c0.02,0.928-0.2,2.324,1.074,2.441
	c1.686,0.156,1.549-1.42,1.578-2.494c0.094-3.477,0.135-6.957,0.089-10.436C771.268,465.576,771.324,462.958,774.902,461.929z"/>
<path fill-rule="evenodd" clip-rule="evenodd" fill="none" d="M805.538,481.427c0.61,0.078,1.222,0.158,1.832,0.238
	c2.406-6.779-2.716-16.463,8.045-20.152c-3.358-0.881-5.784,1.258-8.461,0.205c-0.948-0.373-1.397,0.691-1.401,1.564
	C805.526,469.33,805.538,475.378,805.538,481.427z"/>
<path fill-rule="evenodd" clip-rule="evenodd" d="M733.389,416.562c-4.729,0.146-9.681-0.844-13.429-5.072
	c-1.459-1.646-2.521-3.504-2.545-5.813c-0.013-1.203-0.057-2.52,1.381-2.828c1.21-0.262,1.552,0.92,2.045,1.791
	c4.464,7.859,11.604,10.678,20.128,7.813c3.566-1.197,6.055-3.525,6.164-7.59c0.107-3.957-2.455-6.211-5.703-7.352
	c-4.526-1.588-9.279-2.52-13.881-3.908c-6.873-2.076-8.92-4.34-9.038-9.584c-0.134-5.967,2.526-9.801,8.438-12.162
	c7.349-2.936,17.33-0.318,21.077,5.648c0.915,1.457,2.634,3.51,0.783,4.867c-2.249,1.648-2.818-0.969-3.772-2.447
	c-4.021-6.223-14.143-7.607-19.896-2.787c-4.282,3.588-3.239,9.977,2.236,11.945c4.044,1.453,8.336,2.232,12.54,3.211
	c9.851,2.295,14.302,11.104,9.217,18.557C745.477,416.21,739.807,416.673,733.389,416.562z"/>
<path fill-rule="evenodd" clip-rule="evenodd" d="M892.524,393.455c0,5.984,0.043,11.971-0.021,17.955
	c-0.027,2.479-0.061,5.275-3.777,2.646c-1.773-1.254-3.076,0.043-4.529,0.793c-7.254,3.74-14.82,0.627-17.78-7.053
	c-2.277-5.908-2.388-11.658,0.368-17.391c3.153-6.559,10.571-8.793,16.818-5.098c4.184,2.475,5.082,2.023,5.229-2.744
	c0.072-2.326-0.066-4.658,0.017-6.982c0.052-1.455,0.007-3.396,2.103-3.266c1.719,0.109,1.502,1.887,1.607,3.184
	c0.027,0.33,0.006,0.664,0.006,0.998c0,5.652,0,11.305,0,16.957C892.55,393.455,892.536,393.455,892.524,393.455z M888.721,399.718
	c-0.279-1.43-0.48-4.139-1.364-6.604c-1.552-4.328-4.802-6.816-9.524-6.488c-4.498,0.313-7.244,2.992-8.27,7.373
	c-1.044,4.463-1.027,8.926,0.529,13.26c1.287,3.584,3.887,5.703,7.769,6.074c3.825,0.367,6.851-0.984,8.887-4.275
	C888.28,406.581,888.732,403.804,888.721,399.718z"/>
<path fill-rule="evenodd" clip-rule="evenodd" d="M846.071,401.353c-2.499,0-5-0.076-7.494,0.016
	c-4.182,0.152-5.24,1.807-3.793,5.748c2.268,6.18,10.419,8.344,15.805,4.152c0.906-0.705,1.631-1.646,2.434-2.486
	c0.711-0.744,1.625-1.605,2.563-0.979c1.335,0.893,0.37,2.068-0.159,3.064c-4.002,7.541-18.07,7.463-22.986-0.121
	c-5.344-8.246-2.389-21.877,5.698-25.797c4.644-2.25,9.345-2.295,13.707,0.777c4.489,3.162,5.808,7.92,6.126,13.07
	c0.123,1.982-1.172,2.529-2.908,2.518c-2.997-0.023-5.995-0.008-8.992-0.008C846.071,401.324,846.071,401.337,846.071,401.353z
	 M843.737,398.324c0,0.006,0,0.012,0,0.018c0.99,0,2.006,0.141,2.967-0.027c2.385-0.416,5.873,1.352,6.746-2.291
	c0.875-3.65-1.487-6.32-4.383-8.189c-3.787-2.445-9.217-1.486-12.123,1.967c-1.613,1.916-3.332,4.045-2.293,6.68
	c1.128,2.861,3.968,1.555,6.116,1.822C841.742,398.425,842.746,398.324,843.737,398.324z"/>
<path fill-rule="evenodd" clip-rule="evenodd" d="M772.227,383.464c8.854,0.041,11.799,2.873,11.975,11.021
	c0.092,4.316,0.033,8.639,0.082,12.957c0.021,1.809-0.153,3.686,1.409,5.098c0.951,0.859,2.432,1.787,0.921,3.176
	c-1.09,1.004-2.86,0.797-3.623-0.258c-2.691-3.723-5.102-2.488-8.317-0.516c-5.599,3.438-13.206,1.525-15.222-3.297
	c-2.549-6.092,0.971-12.033,7.844-13.182c2.937-0.49,5.984-0.168,8.848-1.254c2.256-0.854,4.451-1.752,4.307-4.715
	c-0.136-2.814-1.83-4.828-4.299-5.557c-4.134-1.217-8.258-1.25-11.26,2.756c-0.847,1.129-1.717,3.23-3.319,1.896
	c-1.584-1.318-0.114-3.109,0.94-4.322C765.24,384.13,768.887,383.267,772.227,383.464z M769.317,413.49
	c6.746-0.145,11.326-4.49,11.291-10.029c-0.02-3.037-1.236-4.33-4.266-3.699c-2.752,0.574-5.54,1.027-8.24,1.789
	c-3.234,0.912-5.871,2.584-5.394,6.568C763.209,412.302,766.166,413.392,769.317,413.49z"/>
<path fill-rule="evenodd" clip-rule="evenodd" d="M795.656,399.972c0-3.988-0.055-7.979,0.02-11.967
	c0.047-2.5,0.541-4.771,3.515-1.99c1.878,1.758,3.132,0.68,4.771-0.344c8.688-5.428,17.143-0.994,17.416,9.158
	c0.155,5.813,0.037,11.635-0.02,17.451c-0.015,1.418,0.299,3.34-1.976,3.27c-2.101-0.064-2.033-1.879-2.047-3.354
	c-0.047-5.152,0.14-10.311-0.063-15.455c-0.26-6.539-2.801-9.836-7.348-10.104c-4.795-0.281-8.5,2.977-9.834,8.73
	c-1.256,5.416-0.479,10.93-0.746,16.395c-0.076,1.527,0.543,3.809-2.025,3.707c-2.134-0.084-1.664-2.127-1.684-3.529
	c-0.058-3.988-0.021-7.979-0.021-11.969C795.629,399.972,795.643,399.972,795.656,399.972z"/>
<path fill-rule="evenodd" clip-rule="evenodd" d="M711.405,467.33c0-3.66,0.065-7.324-0.02-10.984
	c-0.07-2.984,1.328-4.232,4.234-4.16c3.992,0.102,8-0.084,11.978,0.201c6.589,0.473,9.799,5.734,6.903,11.609
	c-1.313,2.664-1.84,4.855-0.121,7.395c0.443,0.656,0.789,1.578,0.729,2.344c-0.215,2.668,1.654,7.285-0.854,7.572
	c-3.404,0.393-1.647-4.061-2.115-6.363c-0.729-3.588-2.508-5.705-6.254-5.916c-1.162-0.066-2.328-0.096-3.492-0.105
	c-7.557-0.074-7.684,0.055-7.816,7.793c-0.014,0.832,0.037,1.67-0.053,2.494c-0.119,1.094,0.074,2.619-1.656,2.457
	c-1.232-0.115-1.229-1.371-1.349-2.355c-0.04-0.33-0.069-0.664-0.069-0.996c-0.005-3.66-0.004-7.322-0.004-10.984
	C711.432,467.33,711.418,467.33,711.405,467.33z M722.539,454.175c-0.005,0.061-0.01,0.121-0.014,0.184c-1.33,0-2.658-0.006-3.988,0
	c-3.068,0.012-4.083,1.857-3.859,4.568c0.227,2.754-1.314,6.531,3.09,7.277c3.418,0.58,6.959,0.613,10.377-0.395
	c2.752-0.811,4.053-2.672,3.988-5.563c-0.063-2.879-1.498-4.779-4.174-5.496C726.226,454.285,724.351,454.349,722.539,454.175z"/>
<path fill-rule="evenodd" clip-rule="evenodd" d="M847.996,481.076c-1.286-3.633-0.337-7.445-0.594-11.16
	c-0.242-3.496-0.718-7.043-5.088-7.24c-4.541-0.205-5.775,3.199-5.992,6.992c-0.18,3.148-0.102,6.311-0.177,9.467
	c-0.024,1.006-0.158,2.232-1.398,2.273c-1.349,0.047-1.344-1.25-1.365-2.215c-0.081-3.654-0.03-7.311-0.163-10.963
	c-0.092-2.557-0.393-5.111-3.735-5.545c-3.217-0.416-4.89,1.428-6.062,4.076c-1.039,2.35-1.031,4.832-1.163,7.326
	c-0.128,2.408,0.657,4.959-1.113,7.682c-1.764-2.162-1.228-4.479-1.295-6.58c-0.11-3.484-0.058-6.977-0.024-10.465
	c0.021-2.063,0.691-2.307,3.029-3.195c6.551-2.486,12.828,2.043,19.291-0.783c3.942-1.723,7.072,1.164,7.321,5.664
	c0.269,4.879,0.061,9.783,0.061,14.674C849.018,481.081,848.507,481.08,847.996,481.076z"/>
<path fill-rule="evenodd" clip-rule="evenodd" d="M858.057,465.72c0.474-5.354,4.168-4.922,7.007-5.156
	c3.579-0.295,7.296,0.074,8.354,4.463c0.574,2.385,0.664,4.941,0.607,7.414c-0.078,3.461,0.239,6.844,1.863,11.131
	c-4.408-2.541-7.653-2.564-11.396-0.51c-3.141,1.723-7.396-0.969-8.294-4.232c-1.089-3.949,0.856-6.848,5.364-7.92
	c1.938-0.461,3.891-0.865,5.846-1.246c2.092-0.406,3.338-1.568,3.152-3.762c-0.182-2.15-1.697-3.086-3.662-3.484
	C864.293,461.892,862.502,462.486,858.057,465.72z M863.914,481.103c3.62-0.523,6.521-1.844,6.85-5.986
	c0.191-2.426-0.876-3.734-3.496-3.666c-4.4,0.115-8.335,2.754-8.161,5.691C859.285,480.158,861.482,480.824,863.914,481.103z"/>
<path fill-rule="evenodd" clip-rule="evenodd" d="M760.031,478.091c-2.266,4.266-5.686,5.82-9.988,5.105
	c-3.889-0.646-6.568-3.008-7.648-6.947c-2.51-9.141,2.53-16.6,10.701-15.891c3.52,0.305,5.877,2.174,7.273,5.266
	c2.15,4.756,0.848,6.707-4.373,6.748c-1.995,0.016-3.994-0.074-5.984,0.021c-1.98,0.096-4.359,0.043-4.543,2.754
	c-0.175,2.584,1.285,4.467,3.818,5.18c2.867,0.809,5.607,0.58,7.875-1.674C757.754,478.066,758.381,477.523,760.031,478.091z
	 M751.287,471.138c2.42-0.67,6.379,0.549,6.598-3.42c0.188-3.416-2.539-5.191-6.006-5.232c-3.492-0.041-6.026,1.797-6.19,5.141
	C745.523,471.017,748.671,470.945,751.287,471.138z"/>
<path fill-rule="evenodd" clip-rule="evenodd" d="M798.811,471.423c0.048,7.156-3.885,11.895-9.893,11.916
	c-5.524,0.02-10.293-5.219-10.332-11.35c-0.046-7.17,3.783-11.512,10.233-11.604C795.166,460.292,798.763,464.267,798.811,471.423z
	 M795.854,471.539c-0.045-5.82-2.565-9.119-6.943-9.092c-4.314,0.027-7.269,3.691-7.252,8.994c0.017,5.686,2.971,9.441,7.417,9.436
	C793.194,480.871,795.897,477.146,795.854,471.539z"/>
<path fill-rule="evenodd" clip-rule="evenodd" d="M881.428,476.074c3.168,3.707,6.003,5.238,9.573,4.703
	c2.086-0.313,4.002-1.09,4.194-3.537c0.173-2.205-1.466-3.24-3.264-3.877c-2.506-0.887-5.172-1.395-7.572-2.494
	c-3.491-1.602-4.077-5.438-1.521-8.246c3.421-3.76,11.226-2.664,13.213,2.301c-2.859-0.811-4.941-3.225-7.944-2.535
	c-1.706,0.393-3.37,0.697-3.681,2.732c-0.324,2.123,0.745,3.516,2.74,4.158c2.375,0.766,4.792,1.404,7.158,2.199
	c2.292,0.768,3.68,2.477,3.607,4.861c-0.138,4.51-3.29,6.32-7.178,6.924C885.576,484.064,882.484,482.021,881.428,476.074z"/>
<path fill-rule="evenodd" clip-rule="evenodd" d="M774.902,461.929c-3.577,1.029-3.634,3.646-3.598,6.381
	c0.046,3.479,0.005,6.959-0.089,10.436c-0.029,1.074,0.107,2.65-1.578,2.494c-1.274-0.117-1.055-1.514-1.074-2.441
	c-0.094-4.305,1.059-9.104-0.482-12.787c-1.711-4.09,0.109-6.969,0.679-10.354c0.265-1.578,1.311-2.66,2.763-3.281
	c0.746-0.32,1.66-0.721,2.295,0.059c0.707,0.869-0.07,1.406-0.675,1.998C770.092,457.417,771.748,459.642,774.902,461.929z"/>
<path fill-rule="evenodd" clip-rule="evenodd" d="M805.538,481.427c0-6.049-0.013-12.098,0.015-18.145
	c0.004-0.873,0.453-1.938,1.401-1.564c2.677,1.053,5.103-1.086,8.461-0.205c-10.761,3.689-5.639,13.373-8.045,20.152
	C806.76,481.585,806.149,481.505,805.538,481.427z"/>
<path fill-rule="evenodd" clip-rule="evenodd" fill="none" d="M139.145,405.36c-5.487-1.167-8.006-4.068-10.794-6.435
	c-7.416-6.293-15.689-11.176-24.895-14.11c-17.598-5.612-31.365-16.007-41.833-31.177c-4.8-6.958-9.379-14.286-17.277-18.625
	c4.438,6.067,8.479,12.337,11.925,18.91c9.739,18.574,24.38,31.58,43.574,39.757c13.266,5.651,24.64,14.442,31.025,27.119
	c12.624,25.066,32.574,41.057,57.531,52.222c5.44,2.434,7.657,2.007,7.664-3.953c0.034-27.374-0.019-54.748-0.082-82.122
	c-0.007-3.135-0.878-6-4.638-6.228c-8.708-0.528-18.036-2.905-25.939-0.565c-5.658,1.674-7.245-0.408-10.313-2.785
	c-8.29-6.418-16.695-12.545-26.918-15.811c-19.284-6.157-34.363-17.666-45.201-35.059c-4.3-6.899-9.519-13.556-17.235-17.59
	c8.419,9.75,13.581,21.513,20.712,31.999c10.541,15.496,26.151,24.376,42.605,32.239c8.976,4.29,16.012,10.917,20.382,20.003
	c-10.686-7.21-20.331-15.742-32.784-19.679c-19.045-6.018-34.046-17.106-44.822-34.131c-4.52-7.14-9.57-14.198-18.345-18.623
	c4.194,5.714,8.705,10.193,11.244,15.6c10.848,23.106,28.759,38.06,51.755,48.192C125.486,388.473,132.971,395.238,139.145,405.36z"
	/>
<path fill-rule="evenodd" clip-rule="evenodd" fill="none" d="M423.456,388.468c0.716-6.519-1.825-8.153-7.018-7.725
	c-4.922,0.408-9.91,0.357-14.854,0.142c-5.643-0.248-7.679,2.123-7.592,7.766c0.259,16.609,0.095,33.225,0.113,49.838
	c0.012,10.49-0.034,20.985,0.151,31.474c0.034,2.034-1.178,6.614,3.603,4.193c22.172-11.232,44.226-22.566,55.915-46.588
	c6.942-14.262,17.24-26.493,31.874-32.416c26.84-10.862,43.542-30.776,56.167-57.352c-5.955,5.063-9.577,10.166-12.935,15.471
	c-8.023,12.671-18.7,22.672-32.59,28.055c-17.061,6.611-32.924,14.6-45.4,28.349c-1.049,1.154-2.442,2.557-4.888,2.01
	c0.7-4.808,3.492-8.418,6.602-11.768c7.998-8.621,17.021-15.768,28.104-20.22c23.96-9.626,36.947-29.479,47.233-51.715
	c-3.661,3.6-7.08,7.492-9.755,11.84c-9.712,15.785-23.393,26.776-40.747,32.639c-14.218,4.802-25.844,13.029-36.314,23.366
	c-1.697,1.675-3.08,4.233-6.257,3.46c-0.574-4.006,1.952-6.269,3.882-8.716c7.714-9.775,17.192-17.179,28.741-22.1
	c21.848-9.311,36.793-25.378,46.396-48.318c-5.896,2.572-7.318,7.311-9.813,10.979c-7.203,10.595-16.102,19.687-27.742,24.683
	C457.287,363.987,438.247,371.768,423.456,388.468z"/>
<path fill-rule="evenodd" clip-rule="evenodd" fill="none" d="M205.748,428.413c0.064,0,0.126,0,0.189,0
	c0,15.143-0.289,30.291,0.078,45.425c0.401,16.593,8.727,25.075,25.305,25.935c9.293,0.481,18.633,0.217,27.949,0.099
	c10.492-0.131,12.072-1.736,12.111-12.326c0.077-19.802,0.181-39.605-0.045-59.403c-0.074-6.653,2.468-9.562,9.188-9.582
	c8.727-0.025,17.45-0.801,26.177-0.892c10.567-0.109,12.18,1.553,12.221,12.146c0.078,19.51,0.215,39.024-0.086,58.528
	c-0.123,7.939,3.382,11.162,10.937,11.038c7.279-0.118,14.558-0.154,21.836-0.116c23.873,0.126,31.904-7.822,31.973-31.981
	c0.068-24.751-0.01-49.503,0.007-74.256c0.018-22.467,0.034-22.452,22.693-23.26c2.826-0.101,6.343,0.697,7.797-2.521
	c1.66-3.67-1.373-5.945-3.738-8.026c-36.25-31.912-72.615-63.697-108.735-95.755c-5.336-4.737-9.306-4.35-14.244,0.131
	c-9.483,8.604-19.255,16.89-28.88,25.34c-26.473,23.236-52.944,46.472-79.37,69.761c-2.497,2.202-6.427,4.121-4.518,8.416
	c1.747,3.93,5.768,3.253,9.217,3.294c4.076,0.048,8.161,0.169,12.228-0.036c7.152-0.36,9.876,3.018,9.78,9.996
	C205.598,396.378,205.748,412.397,205.748,428.413z"/>
<path fill-rule="evenodd" clip-rule="evenodd" fill="#BF1E23" d="M195.652,178.288c6.954,8.05,11.855,17.298,17.154,26.286
	c7.396,12.547,17.268,22.635,30.186,29.462c11.281,5.962,23.034,11.068,32.188,20.437c3.573,3.66,7.014,1.487,9.748-1.513
	c2.94-3.226,0.164-5.366-2.028-7.169c-7.665-6.298-15.707-12.2-25.28-15.138c-18.935-5.806-33.338-17.337-44.035-33.723
	C208.781,189.573,203.418,182.82,195.652,178.288z"/>
<path fill-rule="evenodd" clip-rule="evenodd" fill="#BF1E23" d="M174.086,204.295c6.964,8.303,11.019,18.355,16.972,27.208
	c8.086,12.022,18.306,21.772,31.493,28.093c9.442,4.524,18.963,8.829,26.405,16.579c3.608,3.759,7.294,2.995,10.359-0.886
	c3.266-4.135-0.162-6.411-2.837-8.51c-7.838-6.15-16.582-10.708-26.043-13.787c-17.047-5.547-29.874-16.405-39.613-31.175
	C186.341,215.02,181.595,208.501,174.086,204.295z"/>
<path fill-rule="evenodd" clip-rule="evenodd" fill="#BF1E23" d="M185.745,192.112c4.697,6.949,9.575,13.676,13.363,21.115
	c6.213,12.198,15.373,21.941,26.61,29.447c12.475,8.333,27.379,12.755,38.174,23.935c3.228,3.342,5.736-0.227,7.987-2.317
	c2.937-2.726,1.748-5.128-0.861-7.26c-7.477-6.107-15.523-11.418-24.752-14.299c-19.771-6.173-34.638-18.266-45.666-35.634
	C196.82,201.146,192.31,195.562,185.745,192.112z"/>
<path fill-rule="evenodd" clip-rule="evenodd" fill="#BF1E23" d="M160.868,214.656c5.84,7.526,10.759,15.35,15.26,23.494
	c7.627,13.794,18.34,24.768,32.253,32.104c10.005,5.275,20.579,9.444,28.744,17.679c3.786,3.819,6.88,1.406,9.555-1.539
	c3.144-3.465,0.601-6.01-2.036-7.9c-6.371-4.57-12.958-8.969-20.5-11.309c-20.257-6.288-35.87-18.287-47.177-36.297
	C172.885,224.387,168.115,218.096,160.868,214.656z"/>
<path fill-rule="evenodd" clip-rule="evenodd" fill="#BF1E23" d="M147.737,225.6c4.21,4.333,8.541,8.834,10.651,14.308
	c12.139,31.486,41.984,42.809,67.054,59.559c3.689,2.466,6.746,0.265,8.997-2.713c2.7-3.571-0.529-5.267-2.757-6.918
	c-5.857-4.343-11.911-8.703-18.891-10.759c-21.166-6.235-36.818-19.167-48.645-37.506
	C160.004,235.144,155.171,228.969,147.737,225.6z"/>
<path fill-rule="evenodd" clip-rule="evenodd" fill="#BF1E23" d="M124.81,250.178c8.894,9.04,13.438,20.808,20.425,30.991
	c6.698,9.763,15.236,17.796,25.425,23.61c9.819,5.603,20.646,9.417,29.394,16.941c3.271,2.811,6.049,0.825,8.297-1.682
	c2.646-2.955,1.026-5.33-1.541-7.321c-4.863-3.769-10.072-7.189-15.904-8.976c-22.138-6.781-39.072-19.943-51.214-39.663
	C136.139,258.305,131.544,253.098,124.81,250.178z"/>
<path fill-rule="evenodd" clip-rule="evenodd" fill="#BF1E23" d="M134.565,236.003c7.354,7.781,12.723,16.957,17.986,26.327
	c7.685,13.681,18.615,24.544,32.451,31.961c9.185,4.925,19.027,8.561,26.832,15.877c3.642,3.414,7.2,1.504,9.716-1.754
	c2.92-3.783-0.589-5.936-2.997-7.712c-6.562-4.833-13.707-8.728-21.504-11.191c-17.604-5.562-31.208-16.226-41.316-31.589
	C150.119,249.389,143.52,241.709,134.565,236.003z"/>
<path fill-rule="evenodd" clip-rule="evenodd" fill="#BF1E23" d="M80.828,301.011c3.703,5.854,7.817,11.494,11.029,17.605
	c9.297,17.689,23.243,30.274,41.195,38.587c6.623,3.065,12.915,6.498,18.495,11.297c1.845,1.585,4.28,5.94,6.899,2.447
	c1.997-2.662,2.902-7.207,0.355-10.663c-1.322-1.792-3.402-3.204-5.414-4.27c-4.871-2.577-9.69-5.571-14.909-7.116
	c-19.451-5.759-33.409-18.135-44.128-34.842C90.938,308.736,87.15,303.646,80.828,301.011z"/>
<path fill-rule="evenodd" clip-rule="evenodd" fill="#BF1E23" d="M115.537,264.16c9.939,11.479,14.506,26.359,24.858,37.734
	c13.402,14.73,32.854,19.556,47.832,31.5c3.219,2.568,6.059-0.436,8.096-2.912c2.941-3.574-0.393-5.226-2.672-6.776
	c-5.282-3.597-10.587-7.191-16.805-9.115c-20.568-6.358-36.601-18.471-47.722-37.098C125.87,272.046,121.473,267.356,115.537,264.16
	z"/>
<path fill-rule="evenodd" clip-rule="evenodd" fill="#BF1E23" d="M103.367,276.327c3.54,5.163,8.119,9.896,10.448,15.558
	c11.623,28.257,38.565,38.199,61.77,52.623c3.658,2.275,6.032-0.784,8.101-3.115c2.727-3.074-0.156-4.679-2.212-6.165
	c-5.444-3.939-11.254-7.437-17.665-9.352c-19.291-5.757-33.999-17.188-44.867-34.072
	C115.002,285.683,110.868,279.393,103.367,276.327z"/>
<path fill-rule="evenodd" clip-rule="evenodd" fill="#BF1E23" d="M89.753,285.281c4.622,6.938,8.672,11.399,10.896,16.637
	c11.906,28.06,37.531,39.994,61.869,53.511c3.648,2.027,6.203-0.152,8.184-2.773c2.261-2.996-0.163-4.688-2.336-6.295
	c-5.427-4.013-11.452-6.963-17.805-9.036c-19.335-6.312-34.101-18.16-44.617-35.535C102.327,295.818,97.762,290.581,89.753,285.281z
	"/>
<path fill-rule="evenodd" clip-rule="evenodd" fill="#0157A4" d="M403.957,191.109c-7.98,7.206-13.21,13.836-17.801,20.905
	c-9.587,14.772-22.941,24.473-39.347,30.325c-9.369,3.34-18.152,7.75-25.855,14.178c-2.703,2.256-6.379,4.01-2.504,8.138
	c3.077,3.279,6.112,2.683,9.036-0.304c6.407-6.547,14.161-10.981,22.455-14.716c16.62-7.485,29.954-18.69,39.081-34.748
	C393.306,207.349,398.231,200.174,403.957,191.109z"/>
<path fill-rule="evenodd" clip-rule="evenodd" fill="#0157A4" d="M385.786,186.657c-2.717,2.265-3.74,2.859-4.408,3.727
	c-1.588,2.065-3.059,4.225-4.491,6.402c-10.902,16.565-25.155,28.506-44.538,34.333c-9.154,2.751-17.307,8.081-24.568,14.479
	c-2.309,2.036-5.711,3.755-1.988,7.553c3.054,3.115,5.74,3.188,8.961,0.176c5.518-5.163,11.133-10.545,18.234-13.246
	C357.815,230.641,373.967,212.638,385.786,186.657z"/>
<path fill-rule="evenodd" clip-rule="evenodd" fill="#0157A4" d="M411.505,208.233c-4.89,3.219-8.476,7.627-11.598,12.58
	c-9.741,15.453-22.549,27.027-40.361,32.716c-9.126,2.915-17.743,7.237-25.123,13.523c-2.245,1.915-7.553,2.997-3.8,7.741
	c3.348,4.23,6.816,3.011,10.35-0.302c6.636-6.222,14.485-10.527,22.847-14.067c8.918-3.774,16.343-9.705,23.504-16.232
	C398.326,234.163,403.361,220.232,411.505,208.233z"/>
<path fill-rule="evenodd" clip-rule="evenodd" fill="#0157A4" d="M427.662,216.026c-6.952,4.415-11.972,10.812-16.319,17.66
	c-10.602,16.705-25.586,27.408-44.187,33.556c-7.775,2.572-14.93,6.475-21.122,11.926c-2.044,1.8-5.429,3.407-2.644,6.983
	c2.736,3.516,5.869,3.002,9.105,0.519c4.146-3.18,7.932-7.412,12.631-9.196c25.582-9.728,43.224-27.622,55.469-51.583
	C422.416,222.33,425.281,219.301,427.662,216.026z"/>
<path fill-rule="evenodd" clip-rule="evenodd" fill="#0157A4" d="M434.74,231.758c-5.403,4.087-8.387,8.66-11.329,13.356
	c-8.537,13.625-19.961,23.913-34.939,30.228c-9.577,4.037-19.75,6.939-27.988,13.751c-2.691,2.225-7.85,3.582-3.908,8.438
	c3.549,4.377,6.879,1.897,10.336-0.987c3.757-3.134,7.705-6.536,12.173-8.238C405.997,278.049,422.955,258.097,434.74,231.758z"/>
<path fill-rule="evenodd" clip-rule="evenodd" fill="#0157A4" d="M447.777,243.247c-5.602,3.167-9.171,8.498-12.631,13.78
	c-10.544,16.099-24.122,27.869-43.078,33.223c-6.012,1.698-11.7,5.143-16.967,8.643c-3.04,2.021-9.873,3.474-6.138,9.241
	c3.74,5.772,8.216,1.573,11.722-1.354c5.646-4.713,12.033-8.114,18.707-10.923c14.695-6.184,25.761-16.612,34.559-29.512
	C438.998,258.946,443.197,250.967,447.777,243.247z"/>
<path fill-rule="evenodd" clip-rule="evenodd" fill="#0157A4" d="M458.785,255.231c-5.33,4.017-9.362,9.269-12.822,14.805
	c-8.973,14.366-21.298,24.397-37.086,30.37c-8.683,3.284-17.461,6.43-24.79,12.429c-2.391,1.958-4.568,4.069-1.656,7.186
	c2.305,2.469,4.884,3.103,7.585,0.481c3.592-3.489,7.856-5.963,12.216-8.354c7.885-4.326,16.26-7.584,23.768-12.8
	C441.967,288.256,449.317,271.035,458.785,255.231z"/>
<path fill-rule="evenodd" clip-rule="evenodd" fill="none" d="M509.75,299.143c-6.783,4.7-11.36,11.293-15.845,17.979
	c-9.832,14.654-22.57,25.589-39.519,31.354c-7.427,2.526-14.688,5.591-21.103,10.242c-4.169,3.021-3.766,7.927-1.558,10.93
	c2.306,3.132,5.063-0.92,6.947-2.56c6.473-5.622,13.915-9.43,21.679-12.8c8.658-3.757,15.831-9.558,22.624-16.053
	C494.674,327.058,499.357,311.181,509.75,299.143z"/>
<path fill-rule="evenodd" clip-rule="evenodd" fill="#0157A4" d="M469.891,268.164c-5.578,3.779-8.304,8.486-11.287,12.931
	c-9.642,14.361-21.784,25.52-38.421,31.432c-8.177,2.907-16.341,6.044-23.394,11.401c-2.408,1.829-5.205,3.392-2.541,6.857
	c2.432,3.165,5.134,4.49,8.532,0.868c4.469-4.765,10.335-7.729,16.203-10.016C443.987,311.895,458.204,292.122,469.891,268.164z"/>
<path fill-rule="evenodd" clip-rule="evenodd" fill="none" d="M478.843,282.699c-0.861,0.738-1.85,1.372-2.554,2.237
	c-1.832,2.251-3.766,4.468-5.26,6.94c-10.39,17.197-25.176,28.518-44.373,34.542c-5.727,1.796-11.062,5.074-16.273,8.182
	c-2.304,1.373-6.927,2.728-3.863,6.975c2.422,3.361,6.039,3.286,9.26,0.796c4.628-3.578,9.542-6.587,14.991-8.749
	C454.585,324.17,469.421,305.971,478.843,282.699z"/>
<path fill-rule="evenodd" clip-rule="evenodd" fill="none" d="M493.352,291.915c-5.278,3.727-8.414,8.961-11.789,14.03
	c-8.565,12.864-19.508,22.869-34.063,28.743c-8.317,3.356-16.98,6.068-24.418,11.321c-2.244,1.587-5.707,2.992-3.223,6.713
	c2.429,3.638,5.565,3.752,8.872,0.934c5.152-4.391,11.148-7.468,17.318-9.959C470.188,333.954,482.482,313.514,493.352,291.915z"/>
<path fill-rule="evenodd" clip-rule="evenodd" fill="#BF1E23" d="M139.145,405.36c-6.173-10.122-13.659-16.887-22.659-20.852
	c-22.997-10.132-40.908-25.085-51.755-48.192c-2.54-5.407-7.05-9.886-11.244-15.6c8.774,4.425,13.825,11.483,18.345,18.623
	c10.776,17.025,25.777,28.113,44.822,34.131c12.453,3.937,22.099,12.469,32.784,19.679c-4.37-9.085-11.406-15.713-20.382-20.003
	c-16.454-7.863-32.065-16.743-42.605-32.239c-7.131-10.486-12.292-22.249-20.712-31.999c7.716,4.034,12.935,10.69,17.235,17.59
	c10.838,17.394,25.917,28.902,45.201,35.059c10.223,3.265,18.628,9.393,26.918,15.811c3.069,2.377,4.655,4.459,10.313,2.785
	c7.903-2.34,17.231,0.038,25.939,0.565c3.76,0.229,4.631,3.093,4.638,6.228c0.063,27.374,0.116,54.748,0.082,82.122
	c-0.007,5.96-2.224,6.387-7.664,3.953c-24.958-11.165-44.908-27.155-57.531-52.222c-6.386-12.677-17.759-21.468-31.025-27.119
	c-19.193-8.177-33.834-21.183-43.574-39.757c-3.446-6.573-7.487-12.843-11.925-18.91c7.898,4.339,12.477,11.667,17.277,18.625
	c10.469,15.17,24.235,25.565,41.833,31.177c9.205,2.934,17.479,7.816,24.895,14.11C131.139,401.291,133.658,404.193,139.145,405.36z
	"/>
<path fill-rule="evenodd" clip-rule="evenodd" fill="#0157A4" d="M423.456,388.468c14.791-16.701,33.831-24.481,52.876-32.654
	c11.641-4.996,20.539-14.088,27.742-24.683c2.495-3.668,3.918-8.407,9.813-10.979c-9.603,22.94-24.548,39.007-46.396,48.318
	c-11.549,4.921-21.027,12.325-28.741,22.1c-1.93,2.447-4.456,4.71-3.882,8.716c3.177,0.773,4.56-1.785,6.257-3.46
	c10.471-10.337,22.097-18.563,36.314-23.366c17.354-5.863,31.035-16.854,40.747-32.639c2.675-4.348,6.094-8.24,9.755-11.84
	c-10.286,22.235-23.273,42.088-47.233,51.715c-11.083,4.452-20.105,11.599-28.104,20.22c-3.109,3.35-5.901,6.96-6.602,11.768
	c2.445,0.547,3.839-0.855,4.888-2.01c12.477-13.75,28.34-21.738,45.4-28.349c13.89-5.383,24.566-15.384,32.59-28.055
	c3.357-5.305,6.979-10.407,12.935-15.471c-12.625,26.576-29.327,46.49-56.167,57.352c-14.634,5.922-24.932,18.154-31.874,32.416
	c-11.689,24.021-33.743,35.355-55.915,46.588c-4.78,2.421-3.568-2.159-3.603-4.193c-0.186-10.488-0.14-20.983-0.151-31.474
	c-0.019-16.613,0.146-33.229-0.113-49.838c-0.087-5.643,1.949-8.013,7.592-7.766c4.943,0.215,9.932,0.267,14.854-0.142
	C421.631,380.315,424.172,381.949,423.456,388.468z"/>
<path fill-rule="evenodd" clip-rule="evenodd" d="M746.525,261.081c0-9.158-0.086-18.318,0.04-27.475
	c0.055-3.99-1.503-5.922-5.593-5.716c-2.325,0.117-4.661,0.048-6.992,0.021c-1.973-0.023-4.271,0.363-5.271-1.884
	c-1.092-2.456,1.155-3.554,2.583-4.813c15.111-13.317,30.249-26.604,45.387-39.892c5.504-4.832,11.092-9.57,16.515-14.49
	c2.824-2.563,5.094-2.784,8.146-0.075c20.654,18.332,41.449,36.508,62.179,54.756c1.353,1.19,3.087,2.491,2.138,4.59
	c-0.832,1.84-2.843,1.384-4.459,1.441c-12.957,0.462-12.967,0.453-12.977,13.301c-0.01,14.154,0.035,28.309-0.004,42.462
	c-0.039,13.815-4.632,18.36-18.283,18.288c-4.162-0.021-8.324-0.001-12.486,0.066c-4.32,0.071-6.324-1.771-6.254-6.312
	c0.172-11.153,0.094-22.313,0.049-33.469c-0.023-6.058-0.945-7.008-6.988-6.945c-4.99,0.052-9.979,0.495-14.969,0.51
	c-3.843,0.012-5.297,1.675-5.254,5.479c0.129,11.321,0.069,22.646,0.025,33.969c-0.022,6.056-0.926,6.974-6.926,7.049
	c-5.327,0.067-10.668,0.219-15.982-0.057c-9.479-0.491-14.24-5.342-14.47-14.83c-0.21-8.654-0.045-17.316-0.045-25.976
	C746.597,261.081,746.562,261.081,746.525,261.081z M750.478,258.638c0,9.325-0.081,18.65,0.025,27.974
	c0.086,7.466,3.535,11.003,10.982,11.32c4.322,0.184,8.663-0.085,12.984,0.1c4.336,0.184,5.859-1.71,5.791-5.973
	c-0.178-11.319-0.084-22.645-0.033-33.967c0.025-5.641,1.043-6.791,6.71-6.817c6.822-0.032,13.646,0.303,20.469,0.436
	c6.551,0.128,7.489,1.013,7.504,7.593c0.025,11.323,0.063,22.646-0.037,33.968c-0.034,3.798,1.49,5.538,5.35,5.347
	c4.817-0.238,9.669-0.047,14.46-0.518c6.545-0.642,9.424-3.751,10.078-10.281c0.232-2.313,0.254-4.654,0.256-6.983
	c0.012-15.818-0.021-31.637-0.012-47.455c0.006-8.877,0.063-8.931,8.825-9.086c1.522-0.027,3.31,0.217,4.022-1.31
	c0.92-1.967-1.038-2.976-2.189-4.006c-4.835-4.327-9.783-8.526-14.666-12.799c-13.147-11.504-26.298-23.004-39.41-34.547
	c-2.229-1.962-4.285-3.03-6.965-0.677c-18.383,16.144-36.809,32.236-55.201,48.368c-0.967,0.848-2.361,1.764-1.795,3.267
	c0.563,1.488,2.205,1.206,3.502,1.324c0.662,0.061,1.33,0.037,1.996,0.06c6.738,0.231,7.305,0.771,7.342,7.688
	C750.517,240.655,750.479,249.647,750.478,258.638z"/>
<path fill-rule="evenodd" clip-rule="evenodd" fill="#BF1E23" d="M195.652,178.288c7.767,4.532,13.13,11.285,17.932,18.642
	c10.697,16.386,25.101,27.917,44.035,33.723c9.573,2.938,17.615,8.84,25.28,15.138c2.192,1.804,4.969,3.943,2.028,7.169
	c-2.734,3-6.175,5.173-9.748,1.513c-9.153-9.369-20.906-14.475-32.188-20.437c-12.918-6.828-22.789-16.916-30.186-29.462
	C207.507,195.585,202.606,186.338,195.652,178.288z"/>
<path fill-rule="evenodd" clip-rule="evenodd" fill="#BF1E23" d="M174.086,204.295c7.509,4.206,12.255,10.725,16.736,17.521
	c9.739,14.771,22.566,25.628,39.613,31.175c9.461,3.079,18.205,7.637,26.043,13.787c2.675,2.099,6.103,4.375,2.837,8.51
	c-3.065,3.881-6.751,4.645-10.359,0.886c-7.442-7.75-16.963-12.055-26.405-16.579c-13.188-6.32-23.407-16.07-31.493-28.093
	C185.105,222.65,181.05,212.598,174.086,204.295z"/>
<path fill-rule="evenodd" clip-rule="evenodd" fill="#BF1E23" d="M185.745,192.112c6.564,3.45,11.074,9.034,14.855,14.986
	c11.028,17.368,25.895,29.461,45.666,35.634c9.229,2.881,17.275,8.192,24.752,14.299c2.609,2.131,3.798,4.534,0.861,7.26
	c-2.251,2.09-4.76,5.66-7.987,2.317c-10.795-11.179-25.699-15.602-38.174-23.935c-11.237-7.505-20.397-17.249-26.61-29.447
	C195.321,205.788,190.443,199.061,185.745,192.112z"/>
<path fill-rule="evenodd" clip-rule="evenodd" fill="#BF1E23" d="M160.868,214.656c7.248,3.439,12.017,9.731,16.099,16.232
	c11.307,18.01,26.92,30.009,47.177,36.297c7.542,2.34,14.129,6.739,20.5,11.309c2.637,1.89,5.18,4.435,2.036,7.9
	c-2.675,2.944-5.769,5.357-9.555,1.539c-8.165-8.235-18.739-12.403-28.744-17.679c-13.913-7.336-24.626-18.311-32.253-32.104
	C171.627,230.006,166.708,222.182,160.868,214.656z"/>
<path fill-rule="evenodd" clip-rule="evenodd" fill="#BF1E23" d="M147.737,225.6c7.434,3.37,12.267,9.545,16.41,15.969
	c11.826,18.34,27.479,31.271,48.645,37.506c6.979,2.056,13.033,6.416,18.891,10.759c2.228,1.651,5.457,3.347,2.757,6.918
	c-2.251,2.978-5.308,5.18-8.997,2.713c-25.069-16.75-54.915-28.072-67.054-59.559C156.278,234.434,151.947,229.932,147.737,225.6z"
	/>
<path fill-rule="evenodd" clip-rule="evenodd" fill="#BF1E23" d="M124.81,250.178c6.734,2.92,11.33,8.127,14.882,13.9
	c12.142,19.719,29.076,32.881,51.214,39.663c5.832,1.787,11.041,5.207,15.904,8.976c2.567,1.991,4.188,4.367,1.541,7.321
	c-2.248,2.507-5.026,4.493-8.297,1.682c-8.747-7.524-19.574-11.338-29.394-16.941c-10.189-5.813-18.728-13.847-25.425-23.61
	C138.248,270.985,133.704,259.217,124.81,250.178z"/>
<path fill-rule="evenodd" clip-rule="evenodd" fill="#BF1E23" d="M134.565,236.003c8.956,5.706,15.554,13.386,21.168,21.919
	c10.108,15.363,23.712,26.027,41.316,31.589c7.797,2.463,14.942,6.358,21.504,11.191c2.408,1.776,5.917,3.93,2.997,7.712
	c-2.516,3.258-6.074,5.168-9.716,1.754c-7.805-7.316-17.647-10.952-26.832-15.877c-13.836-7.417-24.766-18.28-32.451-31.961
	C147.288,252.96,141.918,243.784,134.565,236.003z"/>
<path fill-rule="evenodd" clip-rule="evenodd" fill="#BF1E23" d="M80.828,301.011c6.322,2.635,10.11,7.725,13.522,13.046
	c10.72,16.707,24.677,29.083,44.128,34.842c5.219,1.545,10.039,4.539,14.909,7.116c2.012,1.066,4.092,2.478,5.414,4.27
	c2.546,3.457,1.641,8.001-0.355,10.663c-2.62,3.493-5.055-0.862-6.899-2.447c-5.581-4.799-11.872-8.231-18.495-11.297
	c-17.952-8.313-31.897-20.898-41.195-38.587C88.645,312.505,84.531,306.866,80.828,301.011z"/>
<path fill-rule="evenodd" clip-rule="evenodd" fill="#BF1E23" d="M115.537,264.16c5.936,3.197,10.333,7.886,13.587,13.334
	c11.121,18.626,27.154,30.74,47.722,37.098c6.218,1.923,11.522,5.518,16.805,9.115c2.279,1.55,5.613,3.202,2.672,6.776
	c-2.037,2.476-4.877,5.48-8.096,2.912c-14.978-11.944-34.429-16.77-47.832-31.5C130.043,290.519,125.476,275.639,115.537,264.16z"/>
<path fill-rule="evenodd" clip-rule="evenodd" fill="#BF1E23" d="M103.367,276.327c7.5,3.065,11.635,9.355,15.575,15.478
	c10.868,16.883,25.576,28.315,44.867,34.072c6.411,1.915,12.221,5.412,17.665,9.352c2.056,1.486,4.938,3.091,2.212,6.165
	c-2.068,2.332-4.442,5.39-8.101,3.115c-23.205-14.424-50.147-24.366-61.77-52.623C111.486,286.224,106.907,281.49,103.367,276.327z"
	/>
<path fill-rule="evenodd" clip-rule="evenodd" fill="#BF1E23" d="M89.753,285.281c8.01,5.299,12.575,10.537,16.19,16.509
	c10.517,17.375,25.282,29.224,44.617,35.535c6.353,2.073,12.378,5.023,17.805,9.036c2.174,1.607,4.597,3.299,2.336,6.295
	c-1.981,2.621-4.536,4.8-8.184,2.773c-24.337-13.517-49.962-25.451-61.869-53.511C98.425,296.681,94.374,292.22,89.753,285.281z"/>
<path fill-rule="evenodd" clip-rule="evenodd" fill="#0157A4" d="M403.957,191.109c-5.727,9.065-10.651,16.239-14.935,23.777
	c-9.127,16.058-22.461,27.263-39.081,34.748c-8.294,3.735-16.048,8.168-22.455,14.716c-2.924,2.987-5.959,3.583-9.036,0.304
	c-3.875-4.128-0.199-5.882,2.504-8.138c7.703-6.428,16.486-10.837,25.855-14.178c16.405-5.853,29.76-15.553,39.347-30.325
	C390.747,204.946,395.977,198.315,403.957,191.109z"/>
<path fill-rule="evenodd" clip-rule="evenodd" fill="#0157A4" d="M385.786,186.657c-11.819,25.98-27.972,43.984-52.799,53.424
	c-7.102,2.7-12.717,8.083-18.234,13.246c-3.221,3.012-5.907,2.939-8.961-0.176c-3.723-3.798-0.32-5.518,1.988-7.553
	c7.262-6.397,15.414-11.727,24.568-14.479c19.383-5.827,33.636-17.768,44.538-34.333c1.433-2.177,2.903-4.337,4.491-6.402
	C382.046,189.516,383.07,188.922,385.786,186.657z"/>
<path fill-rule="evenodd" clip-rule="evenodd" fill="#0157A4" d="M411.505,208.233c-8.145,11.999-13.179,25.929-24.182,35.958
	c-7.161,6.527-14.586,12.458-23.504,16.232c-8.361,3.541-16.211,7.846-22.847,14.067c-3.533,3.313-7.002,4.532-10.35,0.302
	c-3.753-4.744,1.555-5.827,3.8-7.741c7.38-6.286,15.997-10.608,25.123-13.523c17.813-5.689,30.62-17.263,40.361-32.716
	C403.03,215.86,406.615,211.453,411.505,208.233z"/>
<path fill-rule="evenodd" clip-rule="evenodd" fill="#0157A4" d="M427.662,216.026c-2.382,3.275-5.246,6.304-7.066,9.864
	c-12.245,23.961-29.887,41.855-55.469,51.583c-4.699,1.785-8.484,6.017-12.631,9.196c-3.236,2.483-6.369,2.997-9.105-0.519
	c-2.785-3.576,0.6-5.183,2.644-6.983c6.192-5.451,13.347-9.354,21.122-11.926c18.601-6.147,33.585-16.851,44.187-33.556
	C415.691,226.838,420.71,220.44,427.662,216.026z"/>
<path fill-rule="evenodd" clip-rule="evenodd" fill="#0157A4" d="M434.74,231.758c-11.784,26.339-28.742,46.291-55.656,56.548
	c-4.468,1.703-8.416,5.104-12.173,8.238c-3.457,2.884-6.787,5.364-10.336,0.987c-3.941-4.856,1.217-6.213,3.908-8.438
	c8.238-6.812,18.411-9.714,27.988-13.751c14.979-6.315,26.402-16.603,34.939-30.228C426.353,240.418,429.336,235.845,434.74,231.758
	z"/>
<path fill-rule="evenodd" clip-rule="evenodd" fill="#0157A4" d="M447.777,243.247c-4.58,7.719-8.778,15.698-13.826,23.098
	c-8.798,12.9-19.863,23.328-34.559,29.512c-6.674,2.809-13.061,6.209-18.707,10.923c-3.506,2.927-7.981,7.126-11.722,1.354
	c-3.735-5.767,3.098-7.22,6.138-9.241c5.267-3.5,10.955-6.945,16.967-8.643c18.956-5.354,32.534-17.124,43.078-33.223
	C438.606,251.746,442.175,246.414,447.777,243.247z"/>
<path fill-rule="evenodd" clip-rule="evenodd" fill="#0157A4" d="M458.785,255.231c-9.469,15.804-16.818,33.025-32.786,44.117
	c-7.508,5.215-15.883,8.474-23.768,12.8c-4.359,2.391-8.624,4.865-12.216,8.354c-2.701,2.622-5.28,1.988-7.585-0.481
	c-2.912-3.117-0.734-5.228,1.656-7.186c7.329-6,16.107-9.146,24.79-12.429c15.788-5.972,28.113-16.003,37.086-30.37
	C449.423,264.499,453.455,259.248,458.785,255.231z"/>
<path fill-rule="evenodd" clip-rule="evenodd" fill="#0157A4" d="M509.75,299.143c-10.394,12.038-15.076,27.915-26.773,39.093
	c-6.793,6.495-13.966,12.296-22.624,16.053c-7.764,3.37-15.206,7.178-21.679,12.8c-1.885,1.64-4.642,5.692-6.947,2.56
	c-2.208-3.002-2.611-7.909,1.558-10.93c6.414-4.65,13.676-7.716,21.103-10.242c16.948-5.765,29.687-16.7,39.519-31.354
	C498.39,310.436,502.967,303.843,509.75,299.143z"/>
<path fill-rule="evenodd" clip-rule="evenodd" fill="#0157A4" d="M469.891,268.164c-11.687,23.958-25.904,43.731-50.907,53.472
	c-5.868,2.287-11.734,5.251-16.203,10.016c-3.398,3.622-6.101,2.297-8.532-0.868c-2.664-3.465,0.133-5.028,2.541-6.857
	c7.053-5.357,15.217-8.494,23.394-11.401c16.637-5.912,28.779-17.071,38.421-31.432C461.587,276.65,464.313,271.943,469.891,268.164
	z"/>
<path fill-rule="evenodd" clip-rule="evenodd" fill="#0157A4" d="M478.843,282.699c-9.422,23.272-24.258,41.472-48.072,50.922
	c-5.449,2.162-10.363,5.171-14.991,8.749c-3.221,2.49-6.838,2.565-9.26-0.796c-3.063-4.247,1.56-5.602,3.863-6.975
	c5.212-3.108,10.547-6.385,16.273-8.182c19.197-6.023,33.983-17.344,44.373-34.542c1.494-2.473,3.428-4.689,5.26-6.94
	C476.993,284.07,477.982,283.436,478.843,282.699z"/>
<path fill-rule="evenodd" clip-rule="evenodd" fill="#0157A4" d="M493.352,291.915c-10.87,21.599-23.164,42.039-47.302,51.782
	c-6.17,2.492-12.166,5.569-17.318,9.959c-3.307,2.818-6.443,2.704-8.872-0.934c-2.484-3.721,0.979-5.126,3.223-6.713
	c7.438-5.253,16.101-7.965,24.418-11.321c14.555-5.875,25.497-15.879,34.063-28.743
	C484.938,300.876,488.073,295.642,493.352,291.915z"/>
<path fill-rule="evenodd" clip-rule="evenodd" fill="none" d="M748.287,258.748c0.001-8.99,0.039-17.982-0.012-26.974
	c-0.037-6.917-0.604-7.457-7.342-7.688c-0.666-0.022-1.334,0.001-1.996-0.06c-1.297-0.118-2.939,0.164-3.502-1.324
	c-0.566-1.503,0.828-2.419,1.795-3.267c18.393-16.132,36.818-32.225,55.201-48.368c2.68-2.354,4.735-1.285,6.965,0.677
	c13.112,11.543,26.263,23.043,39.41,34.547c4.883,4.272,9.831,8.472,14.666,12.799c1.151,1.03,3.109,2.039,2.189,4.006
	c-0.713,1.526-2.5,1.282-4.022,1.31c-8.762,0.155-8.819,0.209-8.825,9.086c-0.009,15.818,0.023,31.636,0.012,47.455
	c-0.002,2.33-0.023,4.67-0.256,6.984c-0.654,6.529-3.533,9.639-10.078,10.281c-4.791,0.471-9.643,0.279-14.46,0.518
	c-3.859,0.191-5.384-1.549-5.35-5.348c0.101-11.32,0.063-22.645,0.037-33.967c-0.015-6.58-0.953-7.465-7.504-7.594
	c-6.823-0.133-13.646-0.467-20.469-0.436c-5.667,0.027-6.685,1.178-6.71,6.818c-0.051,11.322-0.145,22.646,0.033,33.967
	c0.068,4.262-1.455,6.156-5.791,5.973c-4.321-0.186-8.662,0.084-12.984-0.1c-7.447-0.318-10.896-3.855-10.982-11.32
	C748.206,277.399,748.287,268.075,748.287,258.748z"/>
<path fill-rule="evenodd" clip-rule="evenodd" fill="none" d="M888.721,399.718c0.011,4.086-0.441,6.863-1.974,9.34
	c-2.036,3.291-5.062,4.643-8.887,4.275c-3.882-0.371-6.481-2.49-7.769-6.074c-1.557-4.334-1.573-8.797-0.529-13.26
	c1.025-4.381,3.771-7.061,8.27-7.373c4.723-0.328,7.973,2.16,9.524,6.488C888.24,395.58,888.442,398.289,888.721,399.718z"/>
<path fill-rule="evenodd" clip-rule="evenodd" fill="none" d="M1022.874,455.861c-0.99,0-1.994,0.102-2.97-0.021
	c-2.148-0.268-4.988,1.039-6.116-1.822c-1.039-2.635,0.68-4.764,2.293-6.68c2.906-3.453,8.336-4.412,12.123-1.967
	c2.896,1.869,5.258,4.539,4.383,8.189c-0.873,3.643-4.361,1.875-6.746,2.291c-0.961,0.168-1.977,0.027-2.967,0.027
	C1022.874,455.872,1022.874,455.867,1022.874,455.861z"/>
<path fill-rule="evenodd" clip-rule="evenodd" fill="none" d="M769.317,413.49c-3.15-0.098-6.107-1.188-6.608-5.371
	c-0.478-3.984,2.159-5.656,5.394-6.568c2.7-0.762,5.488-1.215,8.24-1.789c3.029-0.631,4.246,0.662,4.266,3.699
	C780.643,408.999,776.063,413.345,769.317,413.49z"/>
<path fill-rule="evenodd" clip-rule="evenodd" fill="none" d="M722.539,454.175c1.812,0.174,3.687,0.109,5.42,0.576
	c2.676,0.717,4.111,2.617,4.174,5.496c0.064,2.891-1.236,4.752-3.988,5.563c-3.418,1.008-6.959,0.975-10.377,0.395
	c-4.404-0.746-2.863-4.523-3.09-7.277c-0.224-2.711,0.791-4.557,3.859-4.568c1.33-0.006,2.658,0,3.988,0
	C722.53,454.296,722.534,454.236,722.539,454.175z"/>
<path fill-rule="evenodd" clip-rule="evenodd" fill="none" d="M863.914,481.103c-2.433-0.279-4.629-0.945-4.808-3.961
	c-0.174-2.938,3.761-5.576,8.161-5.691c2.62-0.068,3.688,1.24,3.496,3.666C870.435,479.259,867.534,480.58,863.914,481.103z"/>
<path fill-rule="evenodd" clip-rule="evenodd" fill="none" d="M751.287,471.138c-2.616-0.193-5.765-0.121-5.599-3.512
	c0.164-3.344,2.698-5.182,6.19-5.141c3.467,0.041,6.193,1.816,6.006,5.232C757.666,471.687,753.707,470.468,751.287,471.138z"/>
<path fill-rule="evenodd" clip-rule="evenodd" fill="none" d="M795.854,471.539c0.043,5.607-2.66,9.332-6.778,9.338
	c-4.446,0.006-7.4-3.75-7.417-9.436c-0.017-5.303,2.938-8.967,7.252-8.994C793.288,462.419,795.809,465.718,795.854,471.539z"/>
</svg>
