<?xml version="1.0" encoding="UTF-8" standalone="no"?>
<!-- Generator: Adobe Illustrator 16.0.3, SVG Export Plug-In . SVG Version: 6.00 Build 0)  -->

<svg
   version="1.1"
   id="svg5"
   sodipodi:docname="logo.svg"
   inkscape:version="1.1.2 (0a00cf5339, 2022-02-04)"
   x="0px"
   y="0px"
   width="48"
   height="48"
   viewBox="0 0 47.999998 47.999999"
   enable-background="new 0 0 595.275 841.89"
   xml:space="preserve"
   xmlns:inkscape="http://www.inkscape.org/namespaces/inkscape"
   xmlns:sodipodi="http://sodipodi.sourceforge.net/DTD/sodipodi-0.dtd"
   xmlns="http://www.w3.org/2000/svg"
   xmlns:svg="http://www.w3.org/2000/svg"><defs
   id="defs177" />
<sodipodi:namedview
   inkscape:cy="20.625619"
   inkscape:cx="58.963199"
   inkscape:zoom="6.5210166"
   showgrid="false"
   borderopacity="1.0"
   bordercolor="#666666"
   pagecolor="#ffffff"
   id="namedview7"
   inkscape:window-x="0"
   inkscape:window-height="864"
   inkscape:current-layer="svg5"
   inkscape:document-units="mm"
   inkscape:window-width="1440"
   inkscape:window-maximized="1"
   inkscape:pagecheckerboard="0"
   inkscape:pageopacity="0.0"
   inkscape:pageshadow="2"
   inkscape:window-y="0"
   inkscape:lockguides="false"
   inkscape:snap-global="true">
	</sodipodi:namedview>






















































<path
   fill-rule="evenodd"
   clip-rule="evenodd"
   d="m 746.525,261.081 c 0,-9.158 -0.086,-18.318 0.04,-27.475 0.055,-3.99 -1.503,-5.922 -5.593,-5.716 -2.325,0.117 -4.661,0.048 -6.992,0.021 -1.973,-0.023 -4.271,0.363 -5.271,-1.884 -1.092,-2.456 1.155,-3.554 2.583,-4.813 15.111,-13.317 30.249,-26.604 45.387,-39.892 5.504,-4.832 11.092,-9.57 16.515,-14.49 2.824,-2.563 5.094,-2.784 8.146,-0.075 20.654,18.332 41.449,36.508 62.179,54.756 1.353,1.19 3.087,2.491 2.138,4.59 -0.832,1.84 -2.843,1.384 -4.459,1.441 -12.957,0.462 -12.967,0.453 -12.977,13.301 -0.01,14.154 0.035,28.309 -0.004,42.462 -0.039,13.815 -4.632,18.36 -18.283,18.288 -4.162,-0.021 -8.324,-0.001 -12.486,0.066 -4.32,0.071 -6.324,-1.771 -6.254,-6.312 0.172,-11.153 0.094,-22.313 0.049,-33.469 -0.023,-6.058 -0.945,-7.008 -6.988,-6.945 -4.99,0.052 -9.979,0.495 -14.969,0.51 -3.843,0.012 -5.297,1.675 -5.254,5.479 0.129,11.321 0.069,22.646 0.025,33.969 -0.022,6.056 -0.926,6.974 -6.926,7.049 -5.327,0.067 -10.668,0.219 -15.982,-0.057 -9.479,-0.491 -14.24,-5.342 -14.47,-14.83 -0.21,-8.654 -0.045,-17.316 -0.045,-25.976 -0.037,0.002 -0.072,0.002 -0.109,0.002 z m 3.953,-2.443 c 0,9.325 -0.081,18.65 0.025,27.974 0.086,7.466 3.535,11.003 10.982,11.32 4.322,0.184 8.663,-0.085 12.984,0.1 4.336,0.184 5.859,-1.71 5.791,-5.973 -0.178,-11.319 -0.084,-22.645 -0.033,-33.967 0.025,-5.641 1.043,-6.791 6.71,-6.817 6.822,-0.032 13.646,0.303 20.469,0.436 6.551,0.128 7.489,1.013 7.504,7.593 0.025,11.323 0.063,22.646 -0.037,33.968 -0.034,3.798 1.49,5.538 5.35,5.347 4.817,-0.238 9.669,-0.047 14.46,-0.518 6.545,-0.642 9.424,-3.751 10.078,-10.281 0.232,-2.313 0.254,-4.654 0.256,-6.983 0.012,-15.818 -0.021,-31.637 -0.012,-47.455 0.006,-8.877 0.063,-8.931 8.825,-9.086 1.522,-0.027 3.31,0.217 4.022,-1.31 0.92,-1.967 -1.038,-2.976 -2.189,-4.006 -4.835,-4.327 -9.783,-8.526 -14.666,-12.799 -13.147,-11.504 -26.298,-23.004 -39.41,-34.547 -2.229,-1.962 -4.285,-3.03 -6.965,-0.677 -18.383,16.144 -36.809,32.236 -55.201,48.368 -0.967,0.848 -2.361,1.764 -1.795,3.267 0.563,1.488 2.205,1.206 3.502,1.324 0.662,0.061 1.33,0.037 1.996,0.06 6.738,0.231 7.305,0.771 7.342,7.688 0.051,8.991 0.013,17.983 0.012,26.974 z"
   id="path114" />






















<path
   fill-rule="evenodd"
   clip-rule="evenodd"
   fill="none"
   d="m 748.287,258.748 c 10e-4,-8.99 0.039,-17.982 -0.012,-26.974 -0.037,-6.917 -0.604,-7.457 -7.342,-7.688 -0.666,-0.022 -1.334,10e-4 -1.996,-0.06 -1.297,-0.118 -2.939,0.164 -3.502,-1.324 -0.566,-1.503 0.828,-2.419 1.795,-3.267 18.393,-16.132 36.818,-32.225 55.201,-48.368 2.68,-2.354 4.735,-1.285 6.965,0.677 13.112,11.543 26.263,23.043 39.41,34.547 4.883,4.272 9.831,8.472 14.666,12.799 1.151,1.03 3.109,2.039 2.189,4.006 -0.713,1.526 -2.5,1.282 -4.022,1.31 -8.762,0.155 -8.819,0.209 -8.825,9.086 -0.009,15.818 0.023,31.636 0.012,47.455 -0.002,2.33 -0.023,4.67 -0.256,6.984 -0.654,6.529 -3.533,9.639 -10.078,10.281 -4.791,0.471 -9.643,0.279 -14.46,0.518 -3.859,0.191 -5.384,-1.549 -5.35,-5.348 0.101,-11.32 0.063,-22.645 0.037,-33.967 -0.015,-6.58 -0.953,-7.465 -7.504,-7.594 -6.823,-0.133 -13.646,-0.467 -20.469,-0.436 -5.667,0.027 -6.685,1.178 -6.71,6.818 -0.051,11.322 -0.145,22.646 0.033,33.967 0.068,4.262 -1.455,6.156 -5.791,5.973 -4.321,-0.186 -8.662,0.084 -12.984,-0.1 -7.447,-0.318 -10.896,-3.855 -10.982,-11.32 -0.106,-9.324 -0.025,-18.648 -0.025,-27.975 z"
   id="path160" />

<path
   fill-rule="evenodd"
   clip-rule="evenodd"
   fill="none"
   d="m 1022.874,455.861 c -0.99,0 -1.994,0.102 -2.97,-0.021 -2.148,-0.268 -4.988,1.039 -6.116,-1.822 -1.039,-2.635 0.68,-4.764 2.293,-6.68 2.906,-3.453 8.336,-4.412 12.123,-1.967 2.896,1.869 5.258,4.539 4.383,8.189 -0.873,3.643 -4.361,1.875 -6.746,2.291 -0.961,0.168 -1.977,0.027 -2.967,0.027 0,-0.006 0,-0.011 0,-0.017 z"
   id="path164" />




<g
   id="g297"
   transform="matrix(0.09361924,0,0,0.09361924,-3.4700909,-12.352478)"><g
     id="g6">
	<path
   id="path75"
   sodipodi:nodetypes="ccccccccccc"
   fill="none"
   stroke="#bf1e23"
   stroke-width="5.1329"
   d="m 294.996,412.388 -28.282,0.06 v 85.088 l -39.5,0.641 c -8.146,-1.322 -12.119,-6.014 -15.327,-11.098 -1.585,-3.44 -0.245,-1.045 -0.37,-1.564 l 0.208,-116.082 h -30.884 c -2.788,-0.609 -2.956,-2.616 0.064,-5.583 l 107.224,-96.524 c 0,0 5.965,-5.37 5.597,-5.039" />
	<g
   id="g47876"
   transform="matrix(4.819664,0,0,4.819664,-391.95268,-153.85584)">
		<path
   id="path27247"
   sodipodi:nodetypes="cccccccccc"
   fill="none"
   stroke="#0157a4"
   stroke-width="1.065"
   d="m 142.53,117.486 5.385,-0.04 0.031,17.345 h 9.028 c 0.741,-0.299 1.437,-0.23 2.428,-2.507 V 108.15 h 6.57 c 0.41,-0.119 0.667,-0.336 -0.007,-1.143 L 143.498,87.28 c 0,0 -1.223,-1.068 -1.151,-1.005" />
	</g>
</g><path
     fill-rule="evenodd"
     clip-rule="evenodd"
     fill="none"
     d="m 423.456,388.468 c 0.716,-6.519 -1.825,-8.153 -7.018,-7.725 -4.922,0.408 -9.91,0.357 -14.854,0.142 -5.643,-0.248 -7.679,2.123 -7.592,7.766 0.259,16.609 0.095,33.225 0.113,49.838 0.012,10.49 -0.034,20.985 0.151,31.474 0.034,2.034 -1.178,6.614 3.603,4.193 22.172,-11.232 44.226,-22.566 55.915,-46.588 6.942,-14.262 17.24,-26.493 31.874,-32.416 26.84,-10.862 43.542,-30.776 56.167,-57.352 -5.955,5.063 -9.577,10.166 -12.935,15.471 -8.023,12.671 -18.7,22.672 -32.59,28.055 -17.061,6.611 -32.924,14.6 -45.4,28.349 -1.049,1.154 -2.442,2.557 -4.888,2.01 0.7,-4.808 3.492,-8.418 6.602,-11.768 7.998,-8.621 17.021,-15.768 28.104,-20.22 23.96,-9.626 36.947,-29.479 47.233,-51.715 -3.661,3.6 -7.08,7.492 -9.755,11.84 -9.712,15.785 -23.393,26.776 -40.747,32.639 -14.218,4.802 -25.844,13.029 -36.314,23.366 -1.697,1.675 -3.08,4.233 -6.257,3.46 -0.574,-4.006 1.952,-6.269 3.882,-8.716 7.714,-9.775 17.192,-17.179 28.741,-22.1 21.848,-9.311 36.793,-25.378 46.396,-48.318 -5.896,2.572 -7.318,7.311 -9.813,10.979 -7.203,10.595 -16.102,19.687 -27.742,24.683 -19.045,8.172 -38.085,15.953 -52.876,32.653 z"
     id="path62" /><path
     fill-rule="evenodd"
     clip-rule="evenodd"
     fill="none"
     d="m 205.748,428.413 c 0.064,0 0.126,0 0.189,0 0,15.143 -0.289,30.291 0.078,45.425 0.401,16.593 8.727,25.075 25.305,25.935 9.293,0.481 18.633,0.217 27.949,0.099 10.492,-0.131 12.072,-1.736 12.111,-12.326 0.077,-19.802 0.181,-39.605 -0.045,-59.403 -0.074,-6.653 2.468,-9.562 9.188,-9.582 8.727,-0.025 17.45,-0.801 26.177,-0.892 10.567,-0.109 12.18,1.553 12.221,12.146 0.078,19.51 0.215,39.024 -0.086,58.528 -0.123,7.939 3.382,11.162 10.937,11.038 7.279,-0.118 14.558,-0.154 21.836,-0.116 23.873,0.126 31.904,-7.822 31.973,-31.981 0.068,-24.751 -0.01,-49.503 0.007,-74.256 0.018,-22.467 0.034,-22.452 22.693,-23.26 2.826,-0.101 6.343,0.697 7.797,-2.521 1.66,-3.67 -1.373,-5.945 -3.738,-8.026 -36.25,-31.912 -72.615,-63.697 -108.735,-95.755 -5.336,-4.737 -9.306,-4.35 -14.244,0.131 -9.483,8.604 -19.255,16.89 -28.88,25.34 -26.473,23.236 -52.944,46.472 -79.37,69.761 -2.497,2.202 -6.427,4.121 -4.518,8.416 1.747,3.93 5.768,3.253 9.217,3.294 4.076,0.048 8.161,0.169 12.228,-0.036 7.152,-0.36 9.876,3.018 9.78,9.996 -0.22,16.01 -0.07,32.029 -0.07,48.045 z"
     id="path64" /><path
     fill-rule="evenodd"
     clip-rule="evenodd"
     fill="#bf1e23"
     d="m 195.652,178.288 c 6.954,8.05 11.855,17.298 17.154,26.286 7.396,12.547 17.268,22.635 30.186,29.462 11.281,5.962 23.034,11.068 32.188,20.437 3.573,3.66 7.014,1.487 9.748,-1.513 2.94,-3.226 0.164,-5.366 -2.028,-7.169 -7.665,-6.298 -15.707,-12.2 -25.28,-15.138 -18.935,-5.806 -33.338,-17.337 -44.035,-33.723 -4.804,-7.357 -10.167,-14.11 -17.933,-18.642 z"
     id="path66" /><path
     fill-rule="evenodd"
     clip-rule="evenodd"
     fill="#bf1e23"
     d="m 174.086,204.295 c 6.964,8.303 11.019,18.355 16.972,27.208 8.086,12.022 18.306,21.772 31.493,28.093 9.442,4.524 18.963,8.829 26.405,16.579 3.608,3.759 7.294,2.995 10.359,-0.886 3.266,-4.135 -0.162,-6.411 -2.837,-8.51 -7.838,-6.15 -16.582,-10.708 -26.043,-13.787 -17.047,-5.547 -29.874,-16.405 -39.613,-31.175 -4.481,-6.797 -9.227,-13.316 -16.736,-17.522 z"
     id="path68" /><path
     fill-rule="evenodd"
     clip-rule="evenodd"
     fill="#bf1e23"
     d="m 185.745,192.112 c 4.697,6.949 9.575,13.676 13.363,21.115 6.213,12.198 15.373,21.941 26.61,29.447 12.475,8.333 27.379,12.755 38.174,23.935 3.228,3.342 5.736,-0.227 7.987,-2.317 2.937,-2.726 1.748,-5.128 -0.861,-7.26 -7.477,-6.107 -15.523,-11.418 -24.752,-14.299 -19.771,-6.173 -34.638,-18.266 -45.666,-35.634 -3.78,-5.953 -8.29,-11.537 -14.855,-14.987 z"
     id="path70" /><path
     fill-rule="evenodd"
     clip-rule="evenodd"
     fill="#bf1e23"
     d="m 160.868,214.656 c 5.84,7.526 10.759,15.35 15.26,23.494 7.627,13.794 18.34,24.768 32.253,32.104 10.005,5.275 20.579,9.444 28.744,17.679 3.786,3.819 6.88,1.406 9.555,-1.539 3.144,-3.465 0.601,-6.01 -2.036,-7.9 -6.371,-4.57 -12.958,-8.969 -20.5,-11.309 -20.257,-6.288 -35.87,-18.287 -47.177,-36.297 -4.082,-6.501 -8.852,-12.792 -16.099,-16.232 z"
     id="path72" /><path
     fill-rule="evenodd"
     clip-rule="evenodd"
     fill="#0157a4"
     d="m 403.957,191.109 c -7.98,7.206 -13.21,13.836 -17.801,20.905 -9.587,14.772 -22.941,24.473 -39.347,30.325 -9.369,3.34 -18.152,7.75 -25.855,14.178 -2.703,2.256 -6.379,4.01 -2.504,8.138 3.077,3.279 6.112,2.683 9.036,-0.304 6.407,-6.547 14.161,-10.981 22.455,-14.716 16.62,-7.485 29.954,-18.69 39.081,-34.748 4.284,-7.538 9.209,-14.713 14.935,-23.778 z"
     id="path88" /><path
     fill-rule="evenodd"
     clip-rule="evenodd"
     fill="#0157a4"
     d="m 385.786,186.657 c -2.717,2.265 -3.74,2.859 -4.408,3.727 -1.588,2.065 -3.059,4.225 -4.491,6.402 -10.902,16.565 -25.155,28.506 -44.538,34.333 -9.154,2.751 -17.307,8.081 -24.568,14.479 -2.309,2.036 -5.711,3.755 -1.988,7.553 3.054,3.115 5.74,3.188 8.961,0.176 5.518,-5.163 11.133,-10.545 18.234,-13.246 24.827,-9.44 40.979,-27.443 52.798,-53.424 z"
     id="path90" /><path
     fill-rule="evenodd"
     clip-rule="evenodd"
     fill="#0157a4"
     d="m 411.505,208.233 c -4.89,3.219 -8.476,7.627 -11.598,12.58 -9.741,15.453 -22.549,27.027 -40.361,32.716 -9.126,2.915 -17.743,7.237 -25.123,13.523 -2.245,1.915 -7.553,2.997 -3.8,7.741 3.348,4.23 6.816,3.011 10.35,-0.302 6.636,-6.222 14.485,-10.527 22.847,-14.067 8.918,-3.774 16.343,-9.705 23.504,-16.232 11.002,-10.029 16.037,-23.96 24.181,-35.959 z"
     id="path92" /><path
     fill-rule="evenodd"
     clip-rule="evenodd"
     fill="#0157a4"
     d="m 427.662,216.026 c -6.952,4.415 -11.972,10.812 -16.319,17.66 -10.602,16.705 -25.586,27.408 -44.187,33.556 -7.775,2.572 -14.93,6.475 -21.122,11.926 -2.044,1.8 -5.429,3.407 -2.644,6.983 2.736,3.516 5.869,3.002 9.105,0.519 4.146,-3.18 7.932,-7.412 12.631,-9.196 25.582,-9.728 43.224,-27.622 55.469,-51.583 1.821,-3.561 4.686,-6.59 7.067,-9.865 z"
     id="path94" /><path
     fill-rule="evenodd"
     clip-rule="evenodd"
     fill="none"
     d="m 509.75,299.143 c -6.783,4.7 -11.36,11.293 -15.845,17.979 -9.832,14.654 -22.57,25.589 -39.519,31.354 -7.427,2.526 -14.688,5.591 -21.103,10.242 -4.169,3.021 -3.766,7.927 -1.558,10.93 2.306,3.132 5.063,-0.92 6.947,-2.56 6.473,-5.622 13.915,-9.43 21.679,-12.8 8.658,-3.757 15.831,-9.558 22.624,-16.053 11.699,-11.177 16.382,-27.054 26.775,-39.092 z"
     id="path102" /><path
     fill-rule="evenodd"
     clip-rule="evenodd"
     fill="#0157a4"
     d="m 423.456,388.468 c 14.791,-16.701 33.831,-24.481 52.876,-32.654 11.641,-4.996 20.539,-14.088 27.742,-24.683 2.495,-3.668 3.918,-8.407 9.813,-10.979 -9.603,22.94 -24.548,39.007 -46.396,48.318 -11.549,4.921 -21.027,12.325 -28.741,22.1 -1.93,2.447 -4.456,4.71 -3.882,8.716 3.177,0.773 4.56,-1.785 6.257,-3.46 10.471,-10.337 22.097,-18.563 36.314,-23.366 17.354,-5.863 31.035,-16.854 40.747,-32.639 2.675,-4.348 6.094,-8.24 9.755,-11.84 -10.286,22.235 -23.273,42.088 -47.233,51.715 -11.083,4.452 -20.105,11.599 -28.104,20.22 -3.109,3.35 -5.901,6.96 -6.602,11.768 2.445,0.547 3.839,-0.855 4.888,-2.01 12.477,-13.75 28.34,-21.738 45.4,-28.349 13.89,-5.383 24.566,-15.384 32.59,-28.055 3.357,-5.305 6.979,-10.407 12.935,-15.471 -12.625,26.576 -29.327,46.49 -56.167,57.352 -14.634,5.922 -24.932,18.154 -31.874,32.416 -11.689,24.021 -33.743,35.355 -55.915,46.588 -4.78,2.421 -3.568,-2.159 -3.603,-4.193 -0.186,-10.488 -0.14,-20.983 -0.151,-31.474 -0.019,-16.613 0.146,-33.229 -0.113,-49.838 -0.087,-5.643 1.949,-8.013 7.592,-7.766 4.943,0.215 9.932,0.267 14.854,-0.142 5.193,-0.427 7.734,1.207 7.018,7.726 z"
     id="path112" /><path
     fill-rule="evenodd"
     clip-rule="evenodd"
     fill="#bf1e23"
     d="m 195.652,178.288 c 7.767,4.532 13.13,11.285 17.932,18.642 10.697,16.386 25.101,27.917 44.035,33.723 9.573,2.938 17.615,8.84 25.28,15.138 2.192,1.804 4.969,3.943 2.028,7.169 -2.734,3 -6.175,5.173 -9.748,1.513 -9.153,-9.369 -20.906,-14.475 -32.188,-20.437 -12.918,-6.828 -22.789,-16.916 -30.186,-29.462 -5.298,-8.989 -10.199,-18.236 -17.153,-26.286 z"
     id="path116" /><path
     fill-rule="evenodd"
     clip-rule="evenodd"
     fill="#bf1e23"
     d="m 174.086,204.295 c 7.509,4.206 12.255,10.725 16.736,17.521 9.739,14.771 22.566,25.628 39.613,31.175 9.461,3.079 18.205,7.637 26.043,13.787 2.675,2.099 6.103,4.375 2.837,8.51 -3.065,3.881 -6.751,4.645 -10.359,0.886 -7.442,-7.75 -16.963,-12.055 -26.405,-16.579 -13.188,-6.32 -23.407,-16.07 -31.493,-28.093 -5.953,-8.852 -10.008,-18.904 -16.972,-27.207 z"
     id="path118" /><path
     fill-rule="evenodd"
     clip-rule="evenodd"
     fill="#bf1e23"
     d="m 185.745,192.112 c 6.564,3.45 11.074,9.034 14.855,14.986 11.028,17.368 25.895,29.461 45.666,35.634 9.229,2.881 17.275,8.192 24.752,14.299 2.609,2.131 3.798,4.534 0.861,7.26 -2.251,2.09 -4.76,5.66 -7.987,2.317 -10.795,-11.179 -25.699,-15.602 -38.174,-23.935 -11.237,-7.505 -20.397,-17.249 -26.61,-29.447 -3.787,-7.438 -8.665,-14.165 -13.363,-21.114 z"
     id="path120" /><path
     fill-rule="evenodd"
     clip-rule="evenodd"
     fill="#bf1e23"
     d="m 160.868,214.656 c 7.248,3.439 12.017,9.731 16.099,16.232 11.307,18.01 26.92,30.009 47.177,36.297 7.542,2.34 14.129,6.739 20.5,11.309 2.637,1.89 5.18,4.435 2.036,7.9 -2.675,2.944 -5.769,5.357 -9.555,1.539 -8.165,-8.235 -18.739,-12.403 -28.744,-17.679 -13.913,-7.336 -24.626,-18.311 -32.253,-32.104 -4.501,-8.144 -9.42,-15.968 -15.26,-23.494 z"
     id="path122" /><path
     fill-rule="evenodd"
     clip-rule="evenodd"
     fill="#0157a4"
     d="m 403.957,191.109 c -5.727,9.065 -10.651,16.239 -14.935,23.777 -9.127,16.058 -22.461,27.263 -39.081,34.748 -8.294,3.735 -16.048,8.168 -22.455,14.716 -2.924,2.987 -5.959,3.583 -9.036,0.304 -3.875,-4.128 -0.199,-5.882 2.504,-8.138 7.703,-6.428 16.486,-10.837 25.855,-14.178 16.405,-5.853 29.76,-15.553 39.347,-30.325 4.591,-7.067 9.821,-13.698 17.801,-20.904 z"
     id="path138" /><path
     fill-rule="evenodd"
     clip-rule="evenodd"
     fill="#0157a4"
     d="m 385.786,186.657 c -11.819,25.98 -27.972,43.984 -52.799,53.424 -7.102,2.7 -12.717,8.083 -18.234,13.246 -3.221,3.012 -5.907,2.939 -8.961,-0.176 -3.723,-3.798 -0.32,-5.518 1.988,-7.553 7.262,-6.397 15.414,-11.727 24.568,-14.479 19.383,-5.827 33.636,-17.768 44.538,-34.333 1.433,-2.177 2.903,-4.337 4.491,-6.402 0.669,-0.868 1.693,-1.462 4.409,-3.727 z"
     id="path140" /><path
     fill-rule="evenodd"
     clip-rule="evenodd"
     fill="#0157a4"
     d="m 411.505,208.233 c -8.145,11.999 -13.179,25.929 -24.182,35.958 -7.161,6.527 -14.586,12.458 -23.504,16.232 -8.361,3.541 -16.211,7.846 -22.847,14.067 -3.533,3.313 -7.002,4.532 -10.35,0.302 -3.753,-4.744 1.555,-5.827 3.8,-7.741 7.38,-6.286 15.997,-10.608 25.123,-13.523 17.813,-5.689 30.62,-17.263 40.361,-32.716 3.124,-4.952 6.709,-9.359 11.599,-12.579 z"
     id="path142" /><path
     fill-rule="evenodd"
     clip-rule="evenodd"
     fill="#0157a4"
     d="m 427.662,216.026 c -2.382,3.275 -5.246,6.304 -7.066,9.864 -12.245,23.961 -29.887,41.855 -55.469,51.583 -4.699,1.785 -8.484,6.017 -12.631,9.196 -3.236,2.483 -6.369,2.997 -9.105,-0.519 -2.785,-3.576 0.6,-5.183 2.644,-6.983 6.192,-5.451 13.347,-9.354 21.122,-11.926 18.601,-6.147 33.585,-16.851 44.187,-33.556 4.347,-6.847 9.366,-13.245 16.318,-17.659 z"
     id="path144" /><path
     fill-rule="evenodd"
     clip-rule="evenodd"
     fill="#0157a4"
     d="m 509.75,299.143 c -10.394,12.038 -15.076,27.915 -26.773,39.093 -6.793,6.495 -13.966,12.296 -22.624,16.053 -7.764,3.37 -15.206,7.178 -21.679,12.8 -1.885,1.64 -4.642,5.692 -6.947,2.56 -2.208,-3.002 -2.611,-7.909 1.558,-10.93 6.414,-4.65 13.676,-7.716 21.103,-10.242 16.948,-5.765 29.687,-16.7 39.519,-31.354 4.483,-6.687 9.06,-13.28 15.843,-17.98 z"
     id="path152" /><g
     id="g241"><path
       fill-rule="evenodd"
       clip-rule="evenodd"
       fill="none"
       d="m 139.145,405.36 c -5.487,-1.167 -8.006,-4.068 -10.794,-6.435 -7.416,-6.293 -15.689,-11.176 -24.895,-14.11 -17.598,-5.612 -31.365,-16.007 -41.833,-31.177 -4.8,-6.958 -9.379,-14.286 -17.277,-18.625 4.438,6.067 8.479,12.337 11.925,18.91 9.739,18.574 24.38,31.58 43.574,39.757 13.266,5.651 24.64,14.442 31.025,27.119 12.624,25.066 32.574,41.057 57.531,52.222 5.44,2.434 7.657,2.007 7.664,-3.953 0.034,-27.374 -0.019,-54.748 -0.082,-82.122 -0.007,-3.135 -0.878,-6 -4.638,-6.228 -8.708,-0.528 -18.036,-2.905 -25.939,-0.565 -5.658,1.674 -7.245,-0.408 -10.313,-2.785 -8.29,-6.418 -16.695,-12.545 -26.918,-15.811 -19.284,-6.157 -34.363,-17.666 -45.201,-35.059 -4.3,-6.899 -9.519,-13.556 -17.235,-17.59 8.419,9.75 13.581,21.513 20.712,31.999 10.541,15.496 26.151,24.376 42.605,32.239 8.976,4.29 16.012,10.917 20.382,20.003 -10.686,-7.21 -20.331,-15.742 -32.784,-19.679 -19.045,-6.018 -34.046,-17.106 -44.822,-34.131 -4.52,-7.14 -9.57,-14.198 -18.345,-18.623 4.194,5.714 8.705,10.193 11.244,15.6 10.848,23.106 28.759,38.06 51.755,48.192 9,3.965 16.485,10.73 22.659,20.852 z"
       id="path60" /><path
       fill-rule="evenodd"
       clip-rule="evenodd"
       fill="#bf1e23"
       d="m 147.737,225.6 c 4.21,4.333 8.541,8.834 10.651,14.308 12.139,31.486 41.984,42.809 67.054,59.559 3.689,2.466 6.746,0.265 8.997,-2.713 2.7,-3.571 -0.529,-5.267 -2.757,-6.918 -5.857,-4.343 -11.911,-8.703 -18.891,-10.759 -21.166,-6.235 -36.818,-19.167 -48.645,-37.506 -4.142,-6.427 -8.975,-12.602 -16.409,-15.971 z"
       id="path74" /><path
       fill-rule="evenodd"
       clip-rule="evenodd"
       fill="#bf1e23"
       d="m 124.81,250.178 c 8.894,9.04 13.438,20.808 20.425,30.991 6.698,9.763 15.236,17.796 25.425,23.61 9.819,5.603 20.646,9.417 29.394,16.941 3.271,2.811 6.049,0.825 8.297,-1.682 2.646,-2.955 1.026,-5.33 -1.541,-7.321 -4.863,-3.769 -10.072,-7.189 -15.904,-8.976 -22.138,-6.781 -39.072,-19.943 -51.214,-39.663 -3.553,-5.773 -8.148,-10.98 -14.882,-13.9 z"
       id="path76" /><path
       fill-rule="evenodd"
       clip-rule="evenodd"
       fill="#bf1e23"
       d="m 134.565,236.003 c 7.354,7.781 12.723,16.957 17.986,26.327 7.685,13.681 18.615,24.544 32.451,31.961 9.185,4.925 19.027,8.561 26.832,15.877 3.642,3.414 7.2,1.504 9.716,-1.754 2.92,-3.783 -0.589,-5.936 -2.997,-7.712 -6.562,-4.833 -13.707,-8.728 -21.504,-11.191 -17.604,-5.562 -31.208,-16.226 -41.316,-31.589 -5.614,-8.533 -12.213,-16.213 -21.168,-21.919 z"
       id="path78" /><path
       fill-rule="evenodd"
       clip-rule="evenodd"
       fill="#bf1e23"
       d="m 80.828,301.011 c 3.703,5.854 7.817,11.494 11.029,17.605 9.297,17.689 23.243,30.274 41.195,38.587 6.623,3.065 12.915,6.498 18.495,11.297 1.845,1.585 4.28,5.94 6.899,2.447 1.997,-2.662 2.902,-7.207 0.355,-10.663 -1.322,-1.792 -3.402,-3.204 -5.414,-4.27 -4.871,-2.577 -9.69,-5.571 -14.909,-7.116 -19.451,-5.759 -33.409,-18.135 -44.128,-34.842 -3.412,-5.32 -7.2,-10.41 -13.522,-13.045 z"
       id="path80" /><path
       fill-rule="evenodd"
       clip-rule="evenodd"
       fill="#bf1e23"
       d="m 115.537,264.16 c 9.939,11.479 14.506,26.359 24.858,37.734 13.402,14.73 32.854,19.556 47.832,31.5 3.219,2.568 6.059,-0.436 8.096,-2.912 2.941,-3.574 -0.393,-5.226 -2.672,-6.776 -5.282,-3.597 -10.587,-7.191 -16.805,-9.115 -20.568,-6.358 -36.601,-18.471 -47.722,-37.098 -3.254,-5.447 -7.651,-10.137 -13.587,-13.333 z"
       id="path82" /><path
       fill-rule="evenodd"
       clip-rule="evenodd"
       fill="#bf1e23"
       d="m 103.367,276.327 c 3.54,5.163 8.119,9.896 10.448,15.558 11.623,28.257 38.565,38.199 61.77,52.623 3.658,2.275 6.032,-0.784 8.101,-3.115 2.727,-3.074 -0.156,-4.679 -2.212,-6.165 -5.444,-3.939 -11.254,-7.437 -17.665,-9.352 -19.291,-5.757 -33.999,-17.188 -44.867,-34.072 -3.94,-6.121 -8.074,-12.411 -15.575,-15.477 z"
       id="path84" /><path
       fill-rule="evenodd"
       clip-rule="evenodd"
       fill="#bf1e23"
       d="m 89.753,285.281 c 4.622,6.938 8.672,11.399 10.896,16.637 11.906,28.06 37.531,39.994 61.869,53.511 3.648,2.027 6.203,-0.152 8.184,-2.773 2.261,-2.996 -0.163,-4.688 -2.336,-6.295 -5.427,-4.013 -11.452,-6.963 -17.805,-9.036 -19.335,-6.312 -34.101,-18.16 -44.617,-35.535 -3.617,-5.972 -8.182,-11.209 -16.191,-16.509 z"
       id="path86" /><path
       fill-rule="evenodd"
       clip-rule="evenodd"
       fill="#0157a4"
       d="m 434.74,231.758 c -5.403,4.087 -8.387,8.66 -11.329,13.356 -8.537,13.625 -19.961,23.913 -34.939,30.228 -9.577,4.037 -19.75,6.939 -27.988,13.751 -2.691,2.225 -7.85,3.582 -3.908,8.438 3.549,4.377 6.879,1.897 10.336,-0.987 3.757,-3.134 7.705,-6.536 12.173,-8.238 26.912,-10.257 43.87,-30.209 55.655,-56.548 z"
       id="path96" /><path
       fill-rule="evenodd"
       clip-rule="evenodd"
       fill="#0157a4"
       d="m 447.777,243.247 c -5.602,3.167 -9.171,8.498 -12.631,13.78 -10.544,16.099 -24.122,27.869 -43.078,33.223 -6.012,1.698 -11.7,5.143 -16.967,8.643 -3.04,2.021 -9.873,3.474 -6.138,9.241 3.74,5.772 8.216,1.573 11.722,-1.354 5.646,-4.713 12.033,-8.114 18.707,-10.923 14.695,-6.184 25.761,-16.612 34.559,-29.512 5.047,-7.399 9.246,-15.378 13.826,-23.098 z"
       id="path98" /><path
       fill-rule="evenodd"
       clip-rule="evenodd"
       fill="#0157a4"
       d="m 458.785,255.231 c -5.33,4.017 -9.362,9.269 -12.822,14.805 -8.973,14.366 -21.298,24.397 -37.086,30.37 -8.683,3.284 -17.461,6.43 -24.79,12.429 -2.391,1.958 -4.568,4.069 -1.656,7.186 2.305,2.469 4.884,3.103 7.585,0.481 3.592,-3.489 7.856,-5.963 12.216,-8.354 7.885,-4.326 16.26,-7.584 23.768,-12.8 15.967,-11.092 23.317,-28.313 32.785,-44.117 z"
       id="path100" /><path
       fill-rule="evenodd"
       clip-rule="evenodd"
       fill="#0157a4"
       d="m 469.891,268.164 c -5.578,3.779 -8.304,8.486 -11.287,12.931 -9.642,14.361 -21.784,25.52 -38.421,31.432 -8.177,2.907 -16.341,6.044 -23.394,11.401 -2.408,1.829 -5.205,3.392 -2.541,6.857 2.432,3.165 5.134,4.49 8.532,0.868 4.469,-4.765 10.335,-7.729 16.203,-10.016 25.004,-9.742 39.221,-29.515 50.908,-53.473 z"
       id="path104" /><path
       fill-rule="evenodd"
       clip-rule="evenodd"
       fill="none"
       d="m 478.843,282.699 c -0.861,0.738 -1.85,1.372 -2.554,2.237 -1.832,2.251 -3.766,4.468 -5.26,6.94 -10.39,17.197 -25.176,28.518 -44.373,34.542 -5.727,1.796 -11.062,5.074 -16.273,8.182 -2.304,1.373 -6.927,2.728 -3.863,6.975 2.422,3.361 6.039,3.286 9.26,0.796 4.628,-3.578 9.542,-6.587 14.991,-8.749 23.814,-9.452 38.65,-27.651 48.072,-50.923 z"
       id="path106" /><path
       fill-rule="evenodd"
       clip-rule="evenodd"
       fill="none"
       d="m 493.352,291.915 c -5.278,3.727 -8.414,8.961 -11.789,14.03 -8.565,12.864 -19.508,22.869 -34.063,28.743 -8.317,3.356 -16.98,6.068 -24.418,11.321 -2.244,1.587 -5.707,2.992 -3.223,6.713 2.429,3.638 5.565,3.752 8.872,0.934 5.152,-4.391 11.148,-7.468 17.318,-9.959 24.139,-9.743 36.433,-30.183 47.303,-51.782 z"
       id="path108" /><path
       fill-rule="evenodd"
       clip-rule="evenodd"
       fill="#bf1e23"
       d="m 139.145,405.36 c -6.173,-10.122 -13.659,-16.887 -22.659,-20.852 -22.997,-10.132 -40.908,-25.085 -51.755,-48.192 -2.54,-5.407 -7.05,-9.886 -11.244,-15.6 8.774,4.425 13.825,11.483 18.345,18.623 10.776,17.025 25.777,28.113 44.822,34.131 12.453,3.937 22.099,12.469 32.784,19.679 -4.37,-9.085 -11.406,-15.713 -20.382,-20.003 -16.454,-7.863 -32.065,-16.743 -42.605,-32.239 -7.131,-10.486 -12.292,-22.249 -20.712,-31.999 7.716,4.034 12.935,10.69 17.235,17.59 10.838,17.394 25.917,28.902 45.201,35.059 10.223,3.265 18.628,9.393 26.918,15.811 3.069,2.377 4.655,4.459 10.313,2.785 7.903,-2.34 17.231,0.038 25.939,0.565 3.76,0.229 4.631,3.093 4.638,6.228 0.063,27.374 0.116,54.748 0.082,82.122 -0.007,5.96 -2.224,6.387 -7.664,3.953 C 163.443,461.856 143.493,445.866 130.87,420.799 124.484,408.122 113.111,399.331 99.845,393.68 80.652,385.503 66.011,372.497 56.271,353.923 52.825,347.35 48.784,341.08 44.346,335.013 c 7.898,4.339 12.477,11.667 17.277,18.625 10.469,15.17 24.235,25.565 41.833,31.177 9.205,2.934 17.479,7.816 24.895,14.11 2.788,2.366 5.307,5.268 10.794,6.435 z"
       id="path110" /><path
       fill-rule="evenodd"
       clip-rule="evenodd"
       fill="#bf1e23"
       d="m 147.737,225.6 c 7.434,3.37 12.267,9.545 16.41,15.969 11.826,18.34 27.479,31.271 48.645,37.506 6.979,2.056 13.033,6.416 18.891,10.759 2.228,1.651 5.457,3.347 2.757,6.918 -2.251,2.978 -5.308,5.18 -8.997,2.713 -25.069,-16.75 -54.915,-28.072 -67.054,-59.559 -2.111,-5.472 -6.442,-9.974 -10.652,-14.306 z"
       id="path124" /><path
       fill-rule="evenodd"
       clip-rule="evenodd"
       fill="#bf1e23"
       d="m 124.81,250.178 c 6.734,2.92 11.33,8.127 14.882,13.9 12.142,19.719 29.076,32.881 51.214,39.663 5.832,1.787 11.041,5.207 15.904,8.976 2.567,1.991 4.188,4.367 1.541,7.321 -2.248,2.507 -5.026,4.493 -8.297,1.682 -8.747,-7.524 -19.574,-11.338 -29.394,-16.941 -10.189,-5.813 -18.728,-13.847 -25.425,-23.61 -6.987,-10.184 -11.531,-21.952 -20.425,-30.991 z"
       id="path126" /><path
       fill-rule="evenodd"
       clip-rule="evenodd"
       fill="#bf1e23"
       d="m 134.565,236.003 c 8.956,5.706 15.554,13.386 21.168,21.919 10.108,15.363 23.712,26.027 41.316,31.589 7.797,2.463 14.942,6.358 21.504,11.191 2.408,1.776 5.917,3.93 2.997,7.712 -2.516,3.258 -6.074,5.168 -9.716,1.754 -7.805,-7.316 -17.647,-10.952 -26.832,-15.877 -13.836,-7.417 -24.766,-18.28 -32.451,-31.961 -5.263,-9.37 -10.633,-18.546 -17.986,-26.327 z"
       id="path128" /><path
       fill-rule="evenodd"
       clip-rule="evenodd"
       fill="#bf1e23"
       d="m 80.828,301.011 c 6.322,2.635 10.11,7.725 13.522,13.046 10.72,16.707 24.677,29.083 44.128,34.842 5.219,1.545 10.039,4.539 14.909,7.116 2.012,1.066 4.092,2.478 5.414,4.27 2.546,3.457 1.641,8.001 -0.355,10.663 -2.62,3.493 -5.055,-0.862 -6.899,-2.447 -5.581,-4.799 -11.872,-8.231 -18.495,-11.297 -17.952,-8.313 -31.897,-20.898 -41.195,-38.587 -3.212,-6.112 -7.326,-11.751 -11.029,-17.606 z"
       id="path130" /><path
       fill-rule="evenodd"
       clip-rule="evenodd"
       fill="#bf1e23"
       d="m 115.537,264.16 c 5.936,3.197 10.333,7.886 13.587,13.334 11.121,18.626 27.154,30.74 47.722,37.098 6.218,1.923 11.522,5.518 16.805,9.115 2.279,1.55 5.613,3.202 2.672,6.776 -2.037,2.476 -4.877,5.48 -8.096,2.912 -14.978,-11.944 -34.429,-16.77 -47.832,-31.5 -10.352,-11.376 -14.919,-26.256 -24.858,-37.735 z"
       id="path132" /><path
       fill-rule="evenodd"
       clip-rule="evenodd"
       fill="#bf1e23"
       d="m 103.367,276.327 c 7.5,3.065 11.635,9.355 15.575,15.478 10.868,16.883 25.576,28.315 44.867,34.072 6.411,1.915 12.221,5.412 17.665,9.352 2.056,1.486 4.938,3.091 2.212,6.165 -2.068,2.332 -4.442,5.39 -8.101,3.115 -23.205,-14.424 -50.147,-24.366 -61.77,-52.623 -2.329,-5.662 -6.908,-10.396 -10.448,-15.559 z"
       id="path134" /><path
       fill-rule="evenodd"
       clip-rule="evenodd"
       fill="#bf1e23"
       d="m 89.753,285.281 c 8.01,5.299 12.575,10.537 16.19,16.509 10.517,17.375 25.282,29.224 44.617,35.535 6.353,2.073 12.378,5.023 17.805,9.036 2.174,1.607 4.597,3.299 2.336,6.295 -1.981,2.621 -4.536,4.8 -8.184,2.773 -24.337,-13.517 -49.962,-25.451 -61.869,-53.511 -2.223,-5.237 -6.274,-9.698 -10.895,-16.637 z"
       id="path136" /><path
       fill-rule="evenodd"
       clip-rule="evenodd"
       fill="#0157a4"
       d="m 434.74,231.758 c -11.784,26.339 -28.742,46.291 -55.656,56.548 -4.468,1.703 -8.416,5.104 -12.173,8.238 -3.457,2.884 -6.787,5.364 -10.336,0.987 -3.941,-4.856 1.217,-6.213 3.908,-8.438 8.238,-6.812 18.411,-9.714 27.988,-13.751 14.979,-6.315 26.402,-16.603 34.939,-30.228 2.943,-4.696 5.926,-9.269 11.33,-13.356 z"
       id="path146" /><path
       fill-rule="evenodd"
       clip-rule="evenodd"
       fill="#0157a4"
       d="m 447.777,243.247 c -4.58,7.719 -8.778,15.698 -13.826,23.098 -8.798,12.9 -19.863,23.328 -34.559,29.512 -6.674,2.809 -13.061,6.209 -18.707,10.923 -3.506,2.927 -7.981,7.126 -11.722,1.354 -3.735,-5.767 3.098,-7.22 6.138,-9.241 5.267,-3.5 10.955,-6.945 16.967,-8.643 18.956,-5.354 32.534,-17.124 43.078,-33.223 3.46,-5.281 7.029,-10.613 12.631,-13.78 z"
       id="path148" /><path
       fill-rule="evenodd"
       clip-rule="evenodd"
       fill="#0157a4"
       d="m 458.785,255.231 c -9.469,15.804 -16.818,33.025 -32.786,44.117 -7.508,5.215 -15.883,8.474 -23.768,12.8 -4.359,2.391 -8.624,4.865 -12.216,8.354 -2.701,2.622 -5.28,1.988 -7.585,-0.481 -2.912,-3.117 -0.734,-5.228 1.656,-7.186 7.329,-6 16.107,-9.146 24.79,-12.429 15.788,-5.972 28.113,-16.003 37.086,-30.37 3.461,-5.537 7.493,-10.788 12.823,-14.805 z"
       id="path150" /><path
       fill-rule="evenodd"
       clip-rule="evenodd"
       fill="#0157a4"
       d="m 469.891,268.164 c -11.687,23.958 -25.904,43.731 -50.907,53.472 -5.868,2.287 -11.734,5.251 -16.203,10.016 -3.398,3.622 -6.101,2.297 -8.532,-0.868 -2.664,-3.465 0.133,-5.028 2.541,-6.857 7.053,-5.357 15.217,-8.494 23.394,-11.401 16.637,-5.912 28.779,-17.071 38.421,-31.432 2.982,-4.444 5.708,-9.151 11.286,-12.93 z"
       id="path154" /><path
       fill-rule="evenodd"
       clip-rule="evenodd"
       fill="#0157a4"
       d="m 478.843,282.699 c -9.422,23.272 -24.258,41.472 -48.072,50.922 -5.449,2.162 -10.363,5.171 -14.991,8.749 -3.221,2.49 -6.838,2.565 -9.26,-0.796 -3.063,-4.247 1.56,-5.602 3.863,-6.975 5.212,-3.108 10.547,-6.385 16.273,-8.182 19.197,-6.023 33.983,-17.344 44.373,-34.542 1.494,-2.473 3.428,-4.689 5.26,-6.94 0.704,-0.865 1.693,-1.499 2.554,-2.236 z"
       id="path156" /><path
       fill-rule="evenodd"
       clip-rule="evenodd"
       fill="#0157a4"
       d="m 493.352,291.915 c -10.87,21.599 -23.164,42.039 -47.302,51.782 -6.17,2.492 -12.166,5.569 -17.318,9.959 -3.307,2.818 -6.443,2.704 -8.872,-0.934 -2.484,-3.721 0.979,-5.126 3.223,-6.713 7.438,-5.253 16.101,-7.965 24.418,-11.321 14.555,-5.875 25.497,-15.879 34.063,-28.743 3.374,-5.069 6.509,-10.303 11.788,-14.03 z"
       id="path158" /></g></g><g
   id="g31193"
   transform="translate(-37.105461,5.5930654)"><path
     fill-rule="evenodd"
     clip-rule="evenodd"
     fill="none"
     d="m 52.143648,39.621891 c 0.0013,0 0.0025,0 0.0038,0 0,0.342833 -9.3e-5,0.685667 3.75e-4,1.028313 0,0.03108 0.0027,0.06235 0.0065,0.09324 0.01114,0.09212 0.01086,0.209707 0.126292,0.220473 0.161961,0.01517 0.143893,-0.127603 0.155033,-0.230022 0.0084,-0.07714 0.0037,-0.155595 0.005,-0.233486 0.01245,-0.724426 0.02434,-0.736503 0.731728,-0.729575 0.108973,9.36e-4 0.218133,0.0037 0.326919,0.0098 0.350697,0.01975 0.517246,0.217946 0.585494,0.553851 0.04381,0.215605 -0.120675,0.632492 0.198005,0.5957 0.234797,-0.02687 0.05982,-0.459109 0.07995,-0.708885 0.0057,-0.07171 -0.02668,-0.15803 -0.06825,-0.219444 -0.160931,-0.237699 -0.1115,-0.442819 0.01133,-0.692314 0.271122,-0.550013 -0.0294,-1.042638 -0.646253,-1.086826 -0.372418,-0.02668 -0.74755,-0.0094 -1.121371,-0.01882 -0.272058,-0.0067 -0.403031,0.110096 -0.396384,0.389456 0.008,0.34274 0.0019,0.685761 0.0019,1.028501 z"
     id="path18"
     style="fill:#0157a4;fill-opacity:1;stroke:none;stroke-width:0.0936192;stroke-opacity:1" /><path
     fill-rule="evenodd"
     clip-rule="evenodd"
     fill="none"
     d="m 58.088189,39.116253 c -0.295182,-0.214107 -0.450309,-0.42241 -0.16477,-0.70177 0.05655,-0.05542 0.129382,-0.105696 0.06319,-0.187051 -0.05945,-0.07293 -0.145016,-0.03548 -0.214856,-0.0055 -0.135935,0.05814 -0.233861,0.159433 -0.25867,0.307164 -0.05327,0.316901 -0.22375,0.586431 -0.06357,0.969334 0.144268,0.344893 0.03642,0.794078 0.04513,1.197109 0.0019,0.08688 -0.01872,0.217571 0.100547,0.228525 0.157842,0.0146 0.145016,-0.13294 0.147731,-0.233487 0.0088,-0.325514 0.01264,-0.651309 0.0083,-0.97701 -0.0033,-0.255861 0.002,-0.500957 0.336936,-0.597291 z"
     id="path30"
     style="fill:#0157a4;fill-opacity:1;stroke:none;stroke-width:0.0936192;stroke-opacity:1" /><path
     fill-rule="evenodd"
     clip-rule="evenodd"
     d="m 52.143648,39.621891 c 0,-0.342647 0.0061,-0.685668 -0.0019,-1.028314 -0.0066,-0.27936 0.124326,-0.396197 0.396384,-0.389456 0.373728,0.0095 0.748953,-0.0079 1.121371,0.01882 0.616857,0.04428 0.917375,0.536813 0.646253,1.086826 -0.122922,0.249402 -0.172259,0.454522 -0.01133,0.692314 0.04147,0.06142 0.07387,0.147732 0.06825,0.219444 -0.02013,0.249776 0.154846,0.682016 -0.07995,0.708885 -0.31868,0.03679 -0.154191,-0.380188 -0.198005,-0.595699 -0.06825,-0.335906 -0.234797,-0.534098 -0.585494,-0.553852 -0.108786,-0.0062 -0.217946,-0.009 -0.326919,-0.0098 -0.70748,-0.0069 -0.71937,0.0051 -0.731728,0.729575 -0.0013,0.07789 0.0035,0.156344 -0.005,0.233486 -0.01114,0.10242 0.0069,0.245189 -0.155033,0.230023 -0.115339,-0.01077 -0.115058,-0.128352 -0.126292,-0.220474 -0.0037,-0.03089 -0.0065,-0.06216 -0.0065,-0.09324 -4.68e-4,-0.342647 -3.75e-4,-0.68548 -3.75e-4,-1.028314 -0.0013,-1.87e-4 -0.0026,-1.87e-4 -0.0038,-1.87e-4 z m 1.042357,-1.231561 c -4.68e-4,0.0057 -9.37e-4,0.01133 -0.0013,0.01723 -0.124514,0 -0.24884,-5.62e-4 -0.373354,0 -0.287223,0.0011 -0.382247,0.17385 -0.361276,0.427652 0.02125,0.257828 -0.123016,0.611427 0.289283,0.681267 0.319991,0.0543 0.651497,0.05739 0.971487,-0.03698 0.25764,-0.07592 0.379439,-0.250151 0.373354,-0.520804 -0.0059,-0.26953 -0.140242,-0.447406 -0.390767,-0.514531 -0.162242,-0.04353 -0.337778,-0.03754 -0.507416,-0.05383 z"
     id="path44"
     style="fill:#0157a4;fill-opacity:1;stroke:none;stroke-width:0.0936192;stroke-opacity:1" /><path
     fill-rule="evenodd"
     clip-rule="evenodd"
     d="m 58.088189,39.116253 c -0.334876,0.09633 -0.340212,0.341336 -0.336842,0.597385 0.0043,0.325701 4.68e-4,0.651496 -0.0083,0.97701 -0.0027,0.100547 0.01002,0.248091 -0.147731,0.233486 -0.119271,-0.01095 -0.09877,-0.141739 -0.100547,-0.228524 -0.0088,-0.403031 0.09914,-0.85231 -0.04512,-1.197109 -0.160182,-0.382903 0.0102,-0.652433 0.06357,-0.969334 0.02481,-0.147731 0.122734,-0.249027 0.25867,-0.307165 0.06984,-0.02996 0.155407,-0.0675 0.214856,0.0055 0.06619,0.08136 -0.0066,0.131628 -0.06319,0.187051 -0.285633,0.279266 -0.130599,0.487569 0.164676,0.701676 z"
     id="path56"
     style="fill:#0157a4;fill-opacity:1;stroke:none;stroke-width:0.0936192;stroke-opacity:1" /><g
     id="g23669"
     style="fill:#bf1e23;fill-opacity:1"><g
       id="g511"
       style="fill:#bf1e23;fill-opacity:1;stroke:none;stroke-opacity:1"
       transform="matrix(0.09361924,0,0,0.09361924,33.384969,-24.708219)"><path
         fill-rule="evenodd"
         clip-rule="evenodd"
         fill="none"
         d="m 222.35605,636.37825 c 6.418,0.111 12.088,-0.352 15.746,-5.711 5.085,-7.453 0.634,-16.262 -9.217,-18.557 -4.204,-0.979 -8.496,-1.758 -12.54,-3.211 -5.476,-1.969 -6.519,-8.357 -2.236,-11.945 5.753,-4.82 15.874,-3.436 19.896,2.787 0.954,1.479 1.523,4.096 3.772,2.447 1.851,-1.357 0.132,-3.41 -0.783,-4.867 -3.747,-5.967 -13.729,-8.584 -21.077,-5.648 -5.912,2.361 -8.572,6.195 -8.438,12.162 0.118,5.244 2.165,7.508 9.038,9.584 4.602,1.389 9.354,2.32 13.881,3.908 3.248,1.141 5.811,3.395 5.703,7.352 -0.109,4.064 -2.598,6.393 -6.164,7.59 -8.523,2.865 -15.664,0.047 -20.128,-7.813 -0.493,-0.871 -0.835,-2.053 -2.045,-1.791 -1.438,0.309 -1.394,1.625 -1.381,2.828 0.024,2.309 1.086,4.166 2.545,5.813 3.747,4.228 8.699,5.218 13.428,5.072 z"
         id="path8"
         style="fill:#bf1e23;fill-opacity:1;stroke:none;stroke-opacity:1" /><path
         fill-rule="evenodd"
         clip-rule="evenodd"
         fill="none"
         d="m 381.49105,613.27125 c 0.013,0 0.026,0 0.039,0 0,-5.652 0,-11.305 0,-16.957 0,-0.334 0.021,-0.668 -0.006,-0.998 -0.105,-1.297 0.111,-3.074 -1.607,-3.184 -2.096,-0.131 -2.051,1.811 -2.103,3.266 -0.083,2.324 0.056,4.656 -0.017,6.982 -0.146,4.768 -1.045,5.219 -5.229,2.744 -6.247,-3.695 -13.665,-1.461 -16.818,5.098 -2.756,5.732 -2.646,11.482 -0.368,17.391 2.96,7.68 10.526,10.793 17.78,7.053 1.453,-0.75 2.756,-2.047 4.529,-0.793 3.717,2.629 3.75,-0.168 3.777,-2.646 0.066,-5.986 0.023,-11.972 0.023,-17.956 z"
         id="path10"
         style="fill:#bf1e23;fill-opacity:1;stroke:none;stroke-opacity:1" /><path
         fill-rule="evenodd"
         clip-rule="evenodd"
         d="m 222.35605,636.37825 c -4.729,0.146 -9.681,-0.844 -13.429,-5.072 -1.459,-1.646 -2.521,-3.504 -2.545,-5.813 -0.013,-1.203 -0.057,-2.52 1.381,-2.828 1.21,-0.262 1.552,0.92 2.045,1.791 4.464,7.859 11.604,10.678 20.128,7.813 3.566,-1.197 6.055,-3.525 6.164,-7.59 0.107,-3.957 -2.455,-6.211 -5.703,-7.352 -4.526,-1.588 -9.279,-2.52 -13.881,-3.908 -6.873,-2.076 -8.92,-4.34 -9.038,-9.584 -0.134,-5.967 2.526,-9.801 8.438,-12.162 7.349,-2.936 17.33,-0.318 21.077,5.648 0.915,1.457 2.634,3.51 0.783,4.867 -2.249,1.648 -2.818,-0.969 -3.772,-2.447 -4.021,-6.223 -14.143,-7.607 -19.896,-2.787 -4.282,3.588 -3.239,9.977 2.236,11.945 4.044,1.453 8.336,2.232 12.54,3.211 9.851,2.295 14.302,11.104 9.217,18.557 -3.657,5.359 -9.327,5.822 -15.745,5.711 z"
         id="path34"
         style="fill:#bf1e23;fill-opacity:1;stroke:none;stroke-opacity:1" /><path
         fill-rule="evenodd"
         clip-rule="evenodd"
         d="m 381.49105,613.27125 c 0,5.984 0.043,11.971 -0.021,17.955 -0.027,2.479 -0.061,5.275 -3.777,2.646 -1.773,-1.254 -3.076,0.043 -4.529,0.793 -7.254,3.74 -14.82,0.627 -17.78,-7.053 -2.277,-5.908 -2.388,-11.658 0.368,-17.391 3.153,-6.559 10.571,-8.793 16.818,-5.098 4.184,2.475 5.082,2.023 5.229,-2.744 0.072,-2.326 -0.066,-4.658 0.017,-6.982 0.052,-1.455 0.007,-3.396 2.103,-3.266 1.719,0.109 1.502,1.887 1.607,3.184 0.027,0.33 0.006,0.664 0.006,0.998 0,5.652 0,11.305 0,16.957 -0.015,10e-4 -0.029,10e-4 -0.041,10e-4 z m -3.803,6.263 c -0.279,-1.43 -0.48,-4.139 -1.364,-6.604 -1.552,-4.328 -4.802,-6.816 -9.524,-6.488 -4.498,0.313 -7.244,2.992 -8.27,7.373 -1.044,4.463 -1.027,8.926 0.529,13.26 1.287,3.584 3.887,5.703 7.769,6.074 3.825,0.367 6.851,-0.984 8.887,-4.275 1.532,-2.477 1.984,-5.254 1.973,-9.34 z"
         id="path36"
         style="fill:#bf1e23;fill-opacity:1;stroke:none;stroke-opacity:1" /></g><path
       fill-rule="evenodd"
       clip-rule="evenodd"
       fill="none"
       d="m 64.750977,33.445174 c 0,-0.0015 0,-0.0027 0,-0.0042 0.280576,0 0.561247,-0.0015 0.841824,7.49e-4 0.162523,0.0011 0.28376,-0.05009 0.272245,-0.235733 -0.02977,-0.482139 -0.153255,-0.927579 -0.573512,-1.223604 -0.408367,-0.287598 -0.848471,-0.283385 -1.283239,-0.07274 -0.757099,0.366988 -1.033743,1.643112 -0.533442,2.415096 0.460232,0.710008 1.777267,0.71731 2.151932,0.01133 0.04952,-0.09325 0.139867,-0.203341 0.01489,-0.28685 -0.08782,-0.0587 -0.173476,0.02191 -0.239946,0.09165 -0.07518,0.07864 -0.142957,0.166736 -0.227869,0.232737 -0.504234,0.392358 -1.267324,0.189766 -1.479652,-0.388707 -0.135467,-0.368953 -0.03642,-0.523893 0.355097,-0.538123 0.23358,-0.0087 0.467722,-0.0016 0.701677,-0.0016 z"
       id="path12"
       style="fill:#bf1e23;fill-opacity:1;stroke:none;stroke-width:0.0936192;stroke-opacity:1" /><path
       fill-rule="evenodd"
       clip-rule="evenodd"
       fill="none"
       d="m 57.837757,31.77042 c -0.312688,-0.01844 -0.654117,0.06235 -0.90951,0.356221 -0.09877,0.11356 -0.236295,0.281232 -0.088,0.404622 0.150072,0.124888 0.231521,-0.0719 0.310723,-0.177502 0.281045,-0.375039 0.66713,-0.371949 1.054152,-0.258015 0.231146,0.06825 0.389737,0.256704 0.402469,0.520242 0.01358,0.277394 -0.192013,0.361464 -0.403218,0.441415 -0.268031,0.101671 -0.553383,0.07153 -0.828343,0.117399 -0.643445,0.107475 -0.972984,0.66376 -0.734349,1.234089 0.188736,0.451432 0.900898,0.630432 1.425072,0.308662 0.30108,-0.184711 0.526702,-0.300237 0.778631,0.04831 0.07143,0.09877 0.237138,0.118147 0.339183,0.02415 0.141459,-0.130037 0.0028,-0.216822 -0.08622,-0.297334 -0.146327,-0.132191 -0.130038,-0.307914 -0.13191,-0.477271 -0.0046,-0.404248 9.36e-4,-0.808964 -0.0077,-1.213025 -0.01638,-0.762996 -0.292185,-1.028126 -1.120997,-1.031964 z"
       id="path14"
       style="fill:#bf1e23;fill-opacity:1;stroke:none;stroke-width:0.0936192;stroke-opacity:1" /><path
       fill-rule="evenodd"
       clip-rule="evenodd"
       fill="none"
       d="m 60.031163,33.315886 c -0.0013,0 -0.0025,0 -0.0039,0 0,0.373541 -0.0035,0.747081 0.002,1.120529 0.0019,0.131254 -0.04213,0.322518 0.157654,0.330382 0.240415,0.0095 0.182464,-0.20409 0.189579,-0.347047 0.02509,-0.511629 -0.04774,-1.027845 0.06984,-1.534887 0.124888,-0.538685 0.471748,-0.843697 0.920652,-0.817296 0.425687,0.02509 0.663573,0.333659 0.687914,0.945929 0.019,0.481671 0.0016,0.964559 0.0059,1.446885 0.0013,0.138089 -0.0051,0.307914 0.191639,0.313999 0.21289,0.0066 0.183587,-0.173383 0.184991,-0.306135 0.0053,-0.544489 0.01638,-1.089634 0.0019,-1.633749 -0.02556,-0.950423 -0.817203,-1.36553 -1.630473,-0.857365 -0.153442,0.09577 -0.27084,0.196787 -0.446657,0.0322 -0.278424,-0.260355 -0.324672,-0.04775 -0.329072,0.186302 -0.0069,0.373354 -0.0019,0.746894 -0.0019,1.120248 z"
       id="path16"
       style="fill:#bf1e23;fill-opacity:1;stroke:none;stroke-width:0.0936192;stroke-opacity:1" /><path
       fill-rule="evenodd"
       clip-rule="evenodd"
       d="m 64.750977,33.445174 c -0.233955,0 -0.468097,-0.0071 -0.701583,0.0015 -0.391516,0.01423 -0.490565,0.16917 -0.355098,0.538123 0.212329,0.578567 0.975419,0.781159 1.479652,0.388707 0.08482,-0.066 0.152693,-0.154097 0.22787,-0.232737 0.06656,-0.06965 0.152131,-0.150259 0.239946,-0.09165 0.124981,0.0836 0.03464,0.193604 -0.01489,0.286849 -0.374664,0.705983 -1.691699,0.698681 -2.151932,-0.01133 -0.500301,-0.771984 -0.223656,-2.048108 0.533443,-2.415095 0.434768,-0.210644 0.874872,-0.214856 1.283239,0.07274 0.420256,0.296024 0.54374,0.741464 0.573511,1.223603 0.01152,0.185554 -0.109722,0.236763 -0.272245,0.235734 -0.280576,-0.0022 -0.561247,-7.49e-4 -0.841824,-7.49e-4 -9.3e-5,0.0016 -9.3e-5,0.0028 -9.3e-5,0.0043 z m -0.218508,-0.283573 c 0,5.62e-4 0,0.0011 0,0.0017 0.09268,0 0.187801,0.0132 0.277769,-0.0025 0.223281,-0.03895 0.549825,0.126573 0.631555,-0.214482 0.08192,-0.34171 -0.139212,-0.591673 -0.410333,-0.766648 -0.354536,-0.228899 -0.862889,-0.139118 -1.134946,0.184149 -0.151008,0.179375 -0.311939,0.37869 -0.214669,0.625377 0.105602,0.267844 0.371481,0.145578 0.572575,0.170574 0.09128,0.01133 0.185273,0.0019 0.278049,0.0019 z"
       id="path38"
       style="fill:#bf1e23;fill-opacity:1;stroke:none;stroke-width:0.0936192;stroke-opacity:1" /><path
       fill-rule="evenodd"
       clip-rule="evenodd"
       d="m 57.837757,31.77042 c 0.828905,0.0038 1.104614,0.268968 1.121091,1.031777 0.0086,0.404061 0.0031,0.808777 0.0077,1.213025 0.002,0.169357 -0.01432,0.34508 0.131909,0.477271 0.08903,0.08042 0.227682,0.167297 0.08622,0.297334 -0.102045,0.09399 -0.267751,0.07461 -0.339182,-0.02415 -0.251929,-0.348544 -0.477645,-0.232924 -0.778631,-0.04831 -0.524174,0.321863 -1.236336,0.142769 -1.425072,-0.308663 -0.238636,-0.570328 0.0909,-1.12652 0.734349,-1.234089 0.27496,-0.04587 0.560218,-0.01573 0.828343,-0.117398 0.211205,-0.07995 0.416699,-0.164021 0.403218,-0.441415 -0.01273,-0.263444 -0.171323,-0.451993 -0.402469,-0.520242 -0.387022,-0.113934 -0.773108,-0.117024 -1.054153,0.258015 -0.0793,0.105696 -0.160744,0.30239 -0.310722,0.177502 -0.148293,-0.12339 -0.01067,-0.291062 0.088,-0.404623 0.2553,-0.293683 0.596729,-0.374476 0.909417,-0.356033 z m -0.272432,2.811011 c 0.631556,-0.01358 1.060332,-0.420351 1.057055,-0.938908 -0.0019,-0.284321 -0.115713,-0.405371 -0.399379,-0.346297 -0.257641,0.05374 -0.518651,0.09615 -0.771423,0.167485 -0.302765,0.08538 -0.549638,0.241912 -0.504982,0.614891 0.0469,0.391609 0.323735,0.493654 0.618729,0.502829 z"
       id="path40"
       style="fill:#bf1e23;fill-opacity:1;stroke:none;stroke-width:0.0936192;stroke-opacity:1" /><path
       fill-rule="evenodd"
       clip-rule="evenodd"
       d="m 60.031163,33.315886 c 0,-0.373354 -0.0051,-0.746988 0.0019,-1.120342 0.0044,-0.234048 0.05065,-0.446657 0.329072,-0.186302 0.175817,0.164583 0.293215,0.06366 0.446657,-0.03221 0.813364,-0.508165 1.604915,-0.09306 1.630473,0.857365 0.01451,0.544209 0.0035,1.08926 -0.0019,1.63375 -0.0014,0.132752 0.02799,0.312688 -0.184991,0.306134 -0.196694,-0.006 -0.190328,-0.17591 -0.191639,-0.313998 -0.0044,-0.482327 0.01311,-0.965308 -0.0059,-1.446886 -0.02434,-0.612176 -0.262227,-0.920839 -0.687914,-0.945929 -0.448904,-0.02631 -0.795764,0.278705 -0.920652,0.817296 -0.117585,0.507042 -0.04484,1.023259 -0.06984,1.534888 -0.0071,0.142956 0.05084,0.356595 -0.189579,0.347046 -0.199783,-0.0079 -0.155782,-0.199128 -0.157654,-0.330382 -0.0054,-0.373354 -0.002,-0.746988 -0.002,-1.120529 0.0014,9.4e-5 0.0027,9.4e-5 0.0039,9.4e-5 z"
       id="path42"
       style="fill:#bf1e23;fill-opacity:1;stroke:none;stroke-width:0.0936192;stroke-opacity:1" /><path
       fill-rule="evenodd"
       clip-rule="evenodd"
       fill="none"
       d="m 68.743837,33.292107 c 0.001,0.382528 -0.04129,0.642508 -0.184804,0.874403 -0.190609,0.308101 -0.473901,0.434674 -0.831994,0.400223 -0.36343,-0.03473 -0.606747,-0.233112 -0.727328,-0.568644 -0.145765,-0.405745 -0.147263,-0.823568 -0.04953,-1.241391 0.09596,-0.410146 0.353038,-0.661045 0.774231,-0.690254 0.442164,-0.03071 0.746426,0.202217 0.89163,0.607401 0.08276,0.230865 0.10167,0.48448 0.12779,0.618262 z"
       id="path162"
       style="fill:#bf1e23;fill-opacity:1;stroke:none;stroke-width:0.0936192;stroke-opacity:1" /><path
       fill-rule="evenodd"
       clip-rule="evenodd"
       fill="none"
       d="m 57.565325,34.581431 c -0.2949,-0.0092 -0.571732,-0.11122 -0.618635,-0.502829 -0.04475,-0.372979 0.202123,-0.529511 0.504982,-0.614891 0.252772,-0.07134 0.513782,-0.113748 0.771422,-0.167485 0.283573,-0.05907 0.397508,0.06198 0.39938,0.346297 0.0032,0.518464 -0.425593,0.925333 -1.057149,0.938908 z"
       id="path166"
       style="fill:#bf1e23;fill-opacity:1;stroke:none;stroke-width:0.0936192;stroke-opacity:1" /></g><g
     id="g1565"
     style="fill:#0157a4;fill-opacity:1;fill-rule:nonzero;stroke:#0157a4;stroke-opacity:1"><path
       fill-rule="evenodd"
       clip-rule="evenodd"
       fill="none"
       d="m 64.931194,40.908781 c 0.04784,3.74e-4 0.09558,5.61e-4 0.143424,7.49e-4 0,-0.457892 0.01947,-0.917001 -0.0057,-1.373769 -0.02331,-0.421287 -0.31634,-0.691565 -0.685387,-0.530259 -0.605061,0.264568 -1.192709,-0.159434 -1.806009,0.0733 -0.218881,0.08323 -0.2817,0.106071 -0.283572,0.299114 -0.0031,0.326544 -0.0081,0.653462 0.0022,0.979725 0.0063,0.196788 -0.04391,0.41361 0.121236,0.616015 0.1658,-0.254925 0.09222,-0.493654 0.104199,-0.719183 0.01236,-0.233486 0.01161,-0.465943 0.108879,-0.685855 0.109722,-0.247903 0.266347,-0.420537 0.56752,-0.381592 0.312969,0.04063 0.341148,0.279735 0.349668,0.519119 0.01245,0.341897 0.0077,0.684263 0.01526,1.026348 0.002,0.09034 0.0016,0.211766 0.127791,0.207366 0.116088,-0.0038 0.128633,-0.118709 0.130879,-0.212796 0.007,-0.295462 -2.8e-4,-0.591487 0.01657,-0.886294 0.02032,-0.355097 0.135842,-0.673777 0.560967,-0.654585 0.409116,0.01844 0.453678,0.35051 0.476334,0.677803 0.02415,0.347702 -0.06469,0.704672 0.0557,1.044791 z"
       id="path20"
       style="fill:#0157a4;fill-opacity:1;fill-rule:nonzero;stroke:#0157a4;stroke-width:0.0936192;stroke-opacity:1" /><path
       fill-rule="evenodd"
       clip-rule="evenodd"
       fill="none"
       d="m 65.873097,39.471164 c 0.416137,-0.302765 0.583809,-0.358375 0.827781,-0.309225 0.183962,0.03726 0.325795,0.124888 0.342834,0.32617 0.01741,0.205307 -0.09933,0.314092 -0.295088,0.352195 -0.183026,0.03567 -0.365864,0.07349 -0.547298,0.11665 -0.422036,0.10036 -0.604125,0.371762 -0.502174,0.741464 0.08407,0.305574 0.48242,0.557503 0.776478,0.396197 0.350417,-0.192388 0.654212,-0.190141 1.066885,0.04775 -0.152038,-0.401346 -0.181715,-0.71806 -0.174413,-1.042076 0.0053,-0.23152 -0.0031,-0.470811 -0.05683,-0.694093 -0.09914,-0.410895 -0.447032,-0.44544 -0.782096,-0.417823 -0.265878,0.022 -0.611708,-0.01835 -0.656083,0.482795 z"
       id="path22"
       style="fill:#0157a4;fill-opacity:1;fill-rule:nonzero;stroke:#0157a4;stroke-width:0.0936192;stroke-opacity:1" /><path
       fill-rule="evenodd"
       clip-rule="evenodd"
       fill="none"
       d="m 56.695977,40.629327 c -0.154472,-0.05318 -0.213171,-0.0023 -0.268593,0.05271 -0.212329,0.211018 -0.468846,0.232363 -0.737252,0.156719 -0.237137,-0.06675 -0.373822,-0.243036 -0.357438,-0.484948 0.01723,-0.253802 0.239946,-0.24884 0.425312,-0.257827 0.186302,-0.009 0.373447,-5.62e-4 0.560218,-0.002 0.488786,-0.0038 0.610678,-0.18649 0.409397,-0.631743 -0.130693,-0.289471 -0.351447,-0.464445 -0.680893,-0.492999 -0.764963,-0.06638 -1.236804,0.63193 -1.00182,1.487703 0.101109,0.368767 0.352009,0.589895 0.716,0.650373 0.402844,0.06694 0.723022,-0.07864 0.935069,-0.47802 z"
       id="path24"
       style="fill:#0157a4;fill-opacity:1;fill-rule:nonzero;stroke:#0157a4;stroke-width:0.0936192;stroke-opacity:1" /><path
       fill-rule="evenodd"
       clip-rule="evenodd"
       fill="none"
       d="m 60.326531,40.005074 c -0.0045,-0.669939 -0.341242,-1.042076 -0.935349,-1.033275 -0.603845,0.0086 -0.962313,0.415107 -0.958006,1.086357 0.0037,0.57398 0.450121,1.064357 0.967274,1.062579 0.562371,-0.0021 0.930575,-0.445628 0.926081,-1.115661 z"
       id="path26"
       style="fill:#0157a4;fill-opacity:1;fill-rule:nonzero;stroke:#0157a4;stroke-width:0.0936192;stroke-opacity:1" /><path
       fill-rule="evenodd"
       clip-rule="evenodd"
       fill="none"
       d="m 68.061072,40.440497 c 0.09886,0.556754 0.388333,0.748018 0.873093,0.673029 0.363992,-0.05655 0.65908,-0.225997 0.671999,-0.64822 0.0067,-0.223281 -0.123109,-0.383277 -0.337685,-0.455083 -0.221503,-0.07443 -0.44778,-0.13425 -0.670126,-0.205868 -0.18677,-0.0602 -0.286849,-0.190516 -0.256517,-0.389269 0.02912,-0.190515 0.184898,-0.219069 0.344613,-0.255768 0.281138,-0.0645 0.476053,0.161493 0.743711,0.237325 -0.186022,-0.46482 -0.91672,-0.567426 -1.236991,-0.215418 -0.239291,0.262976 -0.18443,0.6221 0.142395,0.771984 0.224686,0.102981 0.474275,0.150446 0.708885,0.233487 0.168327,0.05964 0.321769,0.156531 0.305573,0.362961 -0.01797,0.229087 -0.19735,0.301922 -0.392639,0.331132 -0.334315,0.05009 -0.599725,-0.09325 -0.896311,-0.440292 z"
       id="path28"
       style="fill:#0157a4;fill-opacity:1;fill-rule:nonzero;stroke:#0157a4;stroke-width:0.0936192;stroke-opacity:1" /><path
       fill-rule="evenodd"
       clip-rule="evenodd"
       fill="none"
       d="m 60.956308,40.941641 c 0.05711,0.0073 0.114403,0.01479 0.17151,0.02228 0.225248,-0.634644 -0.254269,-1.541253 0.753167,-1.886614 -0.314373,-0.08248 -0.541493,0.117773 -0.792112,0.01919 -0.08875,-0.03492 -0.130786,0.06469 -0.131161,0.14642 -0.0025,0.566209 -0.0014,1.132418 -0.0014,1.698721 z"
       id="path32"
       style="fill:#0157a4;fill-opacity:1;fill-rule:nonzero;stroke:#0157a4;stroke-width:0.0936192;stroke-opacity:1" /><path
       fill-rule="evenodd"
       clip-rule="evenodd"
       d="m 64.931194,40.908781 c -0.120395,-0.340119 -0.03155,-0.696995 -0.05561,-1.044791 -0.02266,-0.327293 -0.06722,-0.65936 -0.476335,-0.677803 -0.425125,-0.01919 -0.540651,0.299488 -0.560966,0.654585 -0.01685,0.294714 -0.0095,0.590832 -0.01657,0.886294 -0.0022,0.09418 -0.01479,0.208958 -0.13088,0.212796 -0.126292,0.0044 -0.125824,-0.117024 -0.12779,-0.207366 -0.0076,-0.342085 -0.0028,-0.684451 -0.01526,-1.026348 -0.0086,-0.239384 -0.03679,-0.478488 -0.349668,-0.519119 -0.301173,-0.03895 -0.457798,0.133689 -0.56752,0.381592 -0.09727,0.220006 -0.09652,0.452369 -0.108879,0.685855 -0.01198,0.225435 0.06151,0.464258 -0.104198,0.719183 -0.165144,-0.202405 -0.114964,-0.419321 -0.121237,-0.616015 -0.0103,-0.326169 -0.0054,-0.653181 -0.0022,-0.979725 0.002,-0.193137 0.06469,-0.21598 0.283573,-0.299114 0.6133,-0.232737 1.200948,0.191265 1.806009,-0.0733 0.369047,-0.161306 0.662075,0.108972 0.685386,0.530259 0.02518,0.456768 0.0057,0.915877 0.0057,1.373769 -0.04784,-2.81e-4 -0.09568,-3.75e-4 -0.143518,-7.49e-4 z"
       id="path46"
       style="fill:#0157a4;fill-opacity:1;fill-rule:nonzero;stroke:#0157a4;stroke-width:0.0936192;stroke-opacity:1" /><path
       fill-rule="evenodd"
       clip-rule="evenodd"
       d="m 65.873097,39.471164 c 0.04438,-0.501238 0.390205,-0.460794 0.65599,-0.482701 0.335063,-0.02762 0.683046,0.0069 0.782095,0.417823 0.05374,0.223281 0.06216,0.462572 0.05683,0.694093 -0.0073,0.324016 0.02237,0.64073 0.174412,1.042075 -0.412673,-0.237886 -0.716468,-0.240039 -1.066884,-0.04774 -0.294058,0.161306 -0.692408,-0.09072 -0.776478,-0.396197 -0.101952,-0.369702 0.08014,-0.641105 0.502173,-0.741464 0.181434,-0.04316 0.364273,-0.08098 0.547298,-0.11665 0.195852,-0.03801 0.312501,-0.146795 0.295088,-0.352196 -0.01704,-0.201281 -0.158872,-0.288909 -0.342833,-0.326169 -0.243879,-0.04924 -0.411551,0.0064 -0.827688,0.309131 z m 0.548328,1.440144 c 0.338901,-0.04896 0.610491,-0.172633 0.641292,-0.560404 0.01788,-0.227121 -0.08201,-0.349575 -0.327293,-0.343208 -0.411925,0.01077 -0.780317,0.257827 -0.764027,0.532787 0.01666,0.282355 0.222346,0.344706 0.450028,0.370825 z"
       id="path48"
       style="fill:#0157a4;fill-opacity:1;fill-rule:nonzero;stroke:#0157a4;stroke-width:0.0936192;stroke-opacity:1" /><path
       fill-rule="evenodd"
       clip-rule="evenodd"
       d="m 56.695977,40.629327 c -0.212141,0.39938 -0.532319,0.544864 -0.935069,0.477927 -0.364085,-0.06048 -0.614891,-0.281607 -0.716,-0.650373 -0.234984,-0.855774 0.236857,-1.55408 1.00182,-1.487704 0.329539,0.02855 0.5502,0.203529 0.680893,0.492999 0.201281,0.445253 0.07939,0.627905 -0.409397,0.631743 -0.186771,0.0015 -0.373916,-0.0069 -0.560218,0.002 -0.185366,0.009 -0.408086,0.004 -0.425312,0.257827 -0.01638,0.241912 0.120301,0.418197 0.357438,0.484948 0.268406,0.07574 0.524923,0.0543 0.737252,-0.156719 0.05542,-0.05495 0.114121,-0.105789 0.268593,-0.05261 z m -0.818606,-0.650934 c 0.226558,-0.06273 0.597197,0.0514 0.617699,-0.320178 0.0176,-0.319803 -0.237699,-0.485978 -0.562277,-0.489816 -0.326918,-0.0038 -0.564149,0.168234 -0.579503,0.481297 -0.01554,0.317369 0.279173,0.310628 0.524081,0.328697 z"
       id="path50"
       style="fill:#0157a4;fill-opacity:1;fill-rule:nonzero;stroke:#0157a4;stroke-width:0.0936192;stroke-opacity:1" /><path
       fill-rule="evenodd"
       clip-rule="evenodd"
       d="m 60.326531,40.005074 c 0.0045,0.66994 -0.36371,1.113601 -0.926175,1.115567 -0.517152,0.0019 -0.963623,-0.488599 -0.967274,-1.062578 -0.0043,-0.67125 0.354162,-1.077745 0.958006,-1.086358 0.594201,-0.0087 0.93095,0.36343 0.935443,1.033369 z m -0.276832,0.01086 c -0.0042,-0.544864 -0.240133,-0.853714 -0.649998,-0.851186 -0.403874,0.0025 -0.680518,0.345549 -0.678927,0.842011 0.0016,0.532319 0.278143,0.88386 0.694374,0.883392 0.385524,-5.62e-4 0.638577,-0.349294 0.634551,-0.874217 z"
       id="path52"
       style="fill:#0157a4;fill-opacity:1;fill-rule:nonzero;stroke:#0157a4;stroke-width:0.0936192;stroke-opacity:1" /><path
       fill-rule="evenodd"
       clip-rule="evenodd"
       d="m 68.061072,40.440497 c 0.296586,0.347047 0.561996,0.490378 0.896217,0.440292 0.19529,-0.0293 0.374664,-0.102045 0.392639,-0.331132 0.0162,-0.20643 -0.137246,-0.303326 -0.305573,-0.362961 -0.23461,-0.08304 -0.484199,-0.130599 -0.708885,-0.233487 -0.326825,-0.149978 -0.381686,-0.509101 -0.142395,-0.771984 0.320272,-0.352008 1.05097,-0.249402 1.236991,0.215418 -0.267657,-0.07592 -0.462572,-0.301922 -0.743711,-0.237325 -0.159714,0.03679 -0.315497,0.06525 -0.344612,0.255768 -0.03033,0.198753 0.06975,0.329165 0.256516,0.389269 0.222346,0.07171 0.448624,0.131441 0.670127,0.205868 0.214575,0.0719 0.344519,0.231895 0.337684,0.455083 -0.01292,0.422223 -0.308007,0.591674 -0.671999,0.64822 -0.484666,0.07499 -0.774137,-0.116275 -0.872999,-0.673029 z"
       id="path54"
       style="fill:#0157a4;fill-opacity:1;fill-rule:nonzero;stroke:#0157a4;stroke-width:0.0936192;stroke-opacity:1" /><path
       fill-rule="evenodd"
       clip-rule="evenodd"
       d="m 60.956308,40.941641 c 0,-0.566303 -0.0012,-1.132605 0.0014,-1.698721 3.75e-4,-0.08173 0.04241,-0.181434 0.131161,-0.14642 0.250619,0.09858 0.477739,-0.101671 0.792112,-0.01919 -1.007436,0.345361 -0.527919,1.25197 -0.753167,1.886614 -0.05711,-0.0075 -0.114309,-0.01498 -0.17151,-0.02228 z"
       id="path58"
       style="fill:#0157a4;fill-opacity:1;fill-rule:nonzero;stroke:#0157a4;stroke-width:0.0936192;stroke-opacity:1" /><path
       fill-rule="evenodd"
       clip-rule="evenodd"
       fill="none"
       d="m 53.186005,38.39033 c 0.169638,0.01629 0.345174,0.0102 0.507416,0.05392 0.250525,0.06712 0.384869,0.245002 0.390767,0.514532 0.006,0.270653 -0.115714,0.444878 -0.373354,0.520803 -0.31999,0.09437 -0.651496,0.09128 -0.971487,0.03698 -0.412299,-0.06984 -0.268032,-0.42344 -0.289283,-0.681267 -0.02097,-0.253802 0.07405,-0.426623 0.361276,-0.427653 0.124514,-5.62e-4 0.24884,0 0.373354,0 4.68e-4,-0.006 8.43e-4,-0.01161 0.0013,-0.01732 z"
       id="path168"
       style="fill:#0157a4;fill-opacity:1;fill-rule:nonzero;stroke:#0157a4;stroke-width:0.0936192;stroke-opacity:1" /><path
       fill-rule="evenodd"
       clip-rule="evenodd"
       fill="none"
       d="m 66.421425,40.911308 c -0.227776,-0.02612 -0.433364,-0.08847 -0.450122,-0.370825 -0.01629,-0.275054 0.352102,-0.522021 0.764027,-0.532787 0.245282,-0.0064 0.345268,0.116087 0.327293,0.343208 -0.03071,0.387771 -0.302297,0.511442 -0.641198,0.560404 z"
       id="path170"
       style="fill:#0157a4;fill-opacity:1;fill-rule:nonzero;stroke:#0157a4;stroke-width:0.0936192;stroke-opacity:1" /><path
       fill-rule="evenodd"
       clip-rule="evenodd"
       fill="none"
       d="m 55.877371,39.978393 c -0.244908,-0.01807 -0.539715,-0.01133 -0.524175,-0.328791 0.01535,-0.313063 0.252585,-0.485135 0.579504,-0.481297 0.324577,0.0038 0.579783,0.170013 0.562277,0.489816 -0.02041,0.371669 -0.391048,0.257547 -0.617606,0.320272 z"
       id="path172"
       style="fill:#0157a4;fill-opacity:1;fill-rule:nonzero;stroke:#0157a4;stroke-width:0.0936192;stroke-opacity:1" /><path
       fill-rule="evenodd"
       clip-rule="evenodd"
       fill="none"
       d="m 60.049699,40.015934 c 0.004,0.524923 -0.249027,0.873655 -0.634551,0.874217 -0.416231,5.61e-4 -0.692782,-0.351073 -0.694374,-0.883392 -0.0016,-0.496462 0.275053,-0.839483 0.678927,-0.842011 0.409771,-0.0026 0.645785,0.306228 0.649998,0.851186 z"
       id="path174"
       style="fill:#0157a4;fill-opacity:1;fill-rule:nonzero;stroke:#0157a4;stroke-width:0.0936192;stroke-opacity:1" /></g></g>
</svg>
