<?xml version="1.0" encoding="UTF-8" standalone="no"?>
<svg
   viewBox="0 0 256 256.00001"
   width="48"
   height="48"
   fill-rule="nonzero"
   version="1.1"
   id="svg19"
   sodipodi:docname="wpp.svg"
   inkscape:version="1.2.2 (732a01da63, 2022-12-09)"
   xmlns:inkscape="http://www.inkscape.org/namespaces/inkscape"
   xmlns:sodipodi="http://sodipodi.sourceforge.net/DTD/sodipodi-0.dtd"
   xmlns="http://www.w3.org/2000/svg"
   xmlns:svg="http://www.w3.org/2000/svg">
  <defs
     id="defs23" />
  <sodipodi:namedview
     id="namedview21"
     pagecolor="#ffffff"
     bordercolor="#000000"
     borderopacity="0.25"
     inkscape:showpageshadow="2"
     inkscape:pageopacity="0.0"
     inkscape:pagecheckerboard="0"
     inkscape:deskcolor="#d1d1d1"
     showgrid="false"
     inkscape:zoom="6.84375"
     inkscape:cx="23.525114"
     inkscape:cy="38.575342"
     inkscape:window-width="1600"
     inkscape:window-height="837"
     inkscape:window-x="-8"
     inkscape:window-y="-8"
     inkscape:window-maximized="1"
     inkscape:current-layer="svg19" />
  <g
     fill-opacity="0"
     fill="#dddddd"
     fill-rule="nonzero"
     stroke="none"
     stroke-width="1"
     stroke-linecap="butt"
     stroke-linejoin="miter"
     stroke-miterlimit="10"
     stroke-dasharray="none"
     stroke-dashoffset="0"
     font-family="none"
     font-weight="none"
     font-size="none"
     text-anchor="none"
     style="mix-blend-mode:normal"
     id="g3"
     transform="matrix(0.96810937,0,0,0.96810937,4.54907,3.544066)">
    <path
       d="M 0,256 V 0 h 256 v 256 z"
       id="bgRectangle" />
  </g>
  <rect
     style="fill:#40c351;fill-opacity:1;stroke-width:1.41815;stroke-linecap:round;stroke-linejoin:round"
     id="rect181"
     width="205.14719"
     height="58.021435"
     x="100.21058"
     y="-252.8911"
     transform="scale(-1)"
     ry="29.010717" />
  <g
     fill="none"
     fill-rule="none"
     stroke="none"
     stroke-width="1"
     stroke-linecap="butt"
     stroke-linejoin="miter"
     stroke-miterlimit="10"
     stroke-dasharray="none"
     stroke-dashoffset="0"
     font-family="none"
     font-weight="none"
     font-size="none"
     text-anchor="none"
     style="mix-blend-mode:normal"
     id="g17"
     transform="matrix(1.1297277,0,0,1.1297277,-15.764388,-15.124364)">
    <g
       transform="scale(5.33333)"
       id="g15">
      <path
         d="M 4.9,43.3 7.6,33.5 C 5.9,30.6 5,27.3 5,24 5,13.5 13.5,5 24,5 29.1,5 33.8,7 37.4,10.6 41,14.2 43,18.9 43,24 43,34.5 34.5,43 24,43 v 0 0 c -3.2,0 -6.3,-0.8 -9.1,-2.3 z"
         fill="#ffffff"
         fill-rule="nonzero"
         id="path5" />
      <path
         d="M 4.9,43.8 C 4.8,43.8 4.6,43.7 4.5,43.7 4.4,43.6 4.3,43.4 4.4,43.2 L 7,33.5 C 5.4,30.6 4.5,27.3 4.5,23.9 4.5,13.2 13.3,4.5 24,4.5 c 5.2,0 10.1,2 13.8,5.7 3.7,3.7 5.7,8.6 5.7,13.8 0,10.7 -8.7,19.5 -19.5,19.5 -3.2,0 -6.3,-0.8 -9.1,-2.3 L 5,43.8 Z"
         fill="#ffffff"
         fill-rule="nonzero"
         id="path7" />
      <path
         d="m 24,5 c 5.1,0 9.8,2 13.4,5.6 C 41,14.2 43,18.9 43,24 43,34.5 34.5,43 24,43 v 0 c -3.2,0 -6.3,-0.8 -9.1,-2.3 l -10,2.6 2.7,-9.8 C 5.9,30.6 5,27.3 5,24 5,13.5 13.5,5 24,5 m 0,38 v 0 0 m 0,0 v 0 0 M 24,4 V 4 C 13,4 4,13 4,24 c 0,3.4 0.8,6.7 2.5,9.6 L 3.9,43 c -0.1,0.3 0,0.7 0.3,1 0.2,0.2 0.4,0.3 0.7,0.3 0.1,0 0.2,0 0.3,0 l 9.7,-2.5 c 2.8,1.5 6,2.2 9.2,2.2 11,0 20,-9 20,-20 C 44.1,18.7 42,13.6 38.3,9.9 34.4,6.1 29.4,4 24,4 Z"
         fill="#cfd8dc"
         fill-rule="nonzero"
         id="path9" />
      <path
         d="M 35.2,12.8 C 32.2,9.8 28.3,8.2 24,8.2 15.3,8.2 8.2,15.3 8.2,24 c 0,3 0.8,5.9 2.4,8.4 l 0.4,0.6 -1.6,5.8 6,-1.6 0.6,0.3 c 2.4,1.4 5.2,2.2 8,2.2 v 0 c 8.7,0 15.8,-7.1 15.8,-15.8 0,-4.1 -1.6,-8.1 -4.6,-11.1 z"
         fill="#40c351"
         fill-rule="nonzero"
         id="path11" />
      <path
         d="m 19.3,16 c -0.4,-0.8 -0.7,-0.8 -1.1,-0.8 -0.3,0 -0.6,0 -0.9,0 -0.3,0 -0.8,0.1 -1.3,0.6 -0.4,0.5 -1.7,1.6 -1.7,4 0,2.4 1.7,4.6 1.9,4.9 0.2,0.3 3.3,5.3 8.1,7.2 4,1.6 4.8,1.3 5.7,1.2 0.9,-0.1 2.8,-1.1 3.2,-2.3 0.4,-1.1 0.4,-2.1 0.3,-2.3 -0.1,-0.2 -0.4,-0.3 -0.9,-0.6 -0.5,-0.3 -2.8,-1.4 -3.2,-1.5 -0.4,-0.2 -0.8,-0.2 -1.1,0.2 -0.3,0.5 -1.2,1.5 -1.5,1.9 -0.3,0.3 -0.6,0.4 -1,0.1 -0.5,-0.2 -2,-0.7 -3.8,-2.4 -1.4,-1.3 -2.4,-2.8 -2.6,-3.3 -0.3,-0.5 0,-0.7 0.2,-1 0.2,-0.2 0.5,-0.6 0.7,-0.8 0.2,-0.3 0.3,-0.5 0.5,-0.8 0.2,-0.3 0.1,-0.6 0,-0.8 C 20.6,19.3 19.7,17 19.3,16 Z"
         fill="#ffffff"
         fill-rule="evenodd"
         id="path13" />
    </g>
  </g>
  <text
     xml:space="preserve"
     style="font-size:23.0805px;font-family:sans-serif;-inkscape-font-specification:sans-serif;fill:#ffffff;fill-opacity:1;stroke-width:1.29829;stroke-linecap:round;stroke-linejoin:round"
     x="-265.91153"
     y="140.40459"
     id="text1343"><tspan
       sodipodi:role="line"
       id="tspan1341"
       style="fill:#ffffff;fill-opacity:1;stroke-width:1.29829"
       x="-265.91153"
       y="140.40459">ENTRE</tspan><tspan
       sodipodi:role="line"
       style="fill:#ffffff;fill-opacity:1;stroke-width:1.29829"
       x="-265.91153"
       y="169.25522"
       id="tspan2159">EM CONTATO</tspan></text>
</svg>
